<svg id="svg5336" xmlns:rdf="http://www.w3.org/1999/02/22-rdf-syntax-ns#" xmlns="http://www.w3.org/2000/svg" viewBox="0 0 1417.3228 1417.3228">
	<defs>
		<style>
			@keyframes move {
				0% {
					fill-opacity: 0;
					transform: translateY(-70px);
				}
				30% {
					transform: translateY(-200px);
					fill-opacity: 0;
				}
				50% {
					transform: translateY(-280px);
					fill-opacity: 0.9;
				}
				100% {
					transform: translateY(-290px);
					fill-opacity: 1;
				}
			}

			#sun {
				stroke: none;
				animation-name: move;
				animation-duration: 3s;
				animation-timing-function: linear;
				animation-iteration-count: 1;
				animation-fill-mode: forwards;
			}
		</style>
	</defs>

 	<g id="layer1" transform="translate(0 364.96)">
  	<g stroke="#b3e0ff" stroke-linecap="round" fill="none">

  	<circle id="sun" fill-rule="evenodd" cx="669.73" cy="338.18" r="199" fill="#ffd42a"/>

   	<path id="path5884" d="m165.92 33.595c54.331 81.859 112.28 38.023 177.14 14.286 64.858-23.737 110.03-11.461 134.29-0.00001 24.257 11.461 68.145 52.089 131.43 8.5714 63.284-43.517 100.19-25.814 148.57-5.7143 48.384 20.1 84.274 31.898 154.29-8.5714 70.011-40.47 95.974-21.638 131.43-2.8572 35.454 18.781 154.22 46.198 171.43-2.8571" stroke-opacity=".58824" stroke-width="23"/>
   	<path id="path5886" d="m164.73 75.615c68.473 71.758 121.88 44.776 181.18 12.265 59.302-32.51 104.81-10.342 134.29-0.00001 29.474 10.342 68.453 56.416 131.43 8.5714 62.975-47.844 88.838-27.588 148.57-5.7143 59.733 21.873 57.417 25.915 158.33-14.632 100.91-40.548 130.63 7.1766 169.81 21.386 39.187 14.21 111.79 28.015 129-21.04" stroke-opacity=".70588" stroke-width="20"/>
   	<path id="path5888" d="m163.06 113.6c77.162 70.391 112.71 52.639 177.14 20 64.437-32.639 72.044-29.147 140-2.8572 31.455 12.169 78.754 42.5 131.43 8.5714 52.674-33.928 95.776-37.182 148.57-5.7143 52.795 31.468 85.335 10.916 145.71-5.7143 60.38-16.631 74.307-28.149 140 4.3872s154.22 36.097 171.43-12.959" stroke-opacity=".78431" stroke-width="24"/>

  	<path id="path5932" d="m159.86 158.85c54.331 38.815 94.548 59.571 177.14 14.286 82.595-45.285 134.25 3.0451 134.29-0.00001 0.0321-3.0451 46.788 50.339 131.43 8.5714 84.641-41.767 113.92-29.934 148.57-5.7143 34.654 24.219 84.274 31.898 154.29-8.5714 70.011-40.47 145.57 15.326 145.57 15.326 31.945 24.275 156.24 36.097 173.45-12.959" stroke="#b3e0ff" stroke-linecap="round" stroke-width="23" fill="none"/>
   </g>
 </g>
</svg>
