<?xml version="1.0" encoding="UTF-8" standalone="no"?>
<svg
   xmlns:dc="http://purl.org/dc/elements/1.1/"
   xmlns:cc="http://creativecommons.org/ns#"
   xmlns:rdf="http://www.w3.org/1999/02/22-rdf-syntax-ns#"
   xmlns:svg="http://www.w3.org/2000/svg"
   xmlns="http://www.w3.org/2000/svg"
   version="1.1"
   id="svg4736"
   viewBox="0 0 399.99999 241.72419"
   height="68.21994mm"
   width="112.88889mm">
  <defs
     id="defs4738" />
  <metadata
     id="metadata4741">
    <rdf:RDF>
      <cc:Work
         rdf:about="">
        <dc:format>image/svg+xml</dc:format>
        <dc:type
           rdf:resource="http://purl.org/dc/dcmitype/StillImage" />
        <dc:title></dc:title>
      </cc:Work>
    </rdf:RDF>
  </metadata>
  <g
     transform="translate(-25.82807,-793.32402)"
     id="layer1">
    <path
       transform="matrix(-0.96434407,-0.26465168,0.26465168,-0.96434407,0,0)"
       d="m -277.07626,-904.61871 a 205.03699,205.03699 0 0 1 -151.96952,198.05052 205.03699,205.03699 0 0 1 -230.63471,-95.53203 l 177.56724,-102.51849 z"
       id="path4760"
       style="fill:#d40000;stroke:#d40000;stroke-width:3.18946433;stroke-miterlimit:4;stroke-dasharray:none;stroke-opacity:1" />
    <path
       transform="matrix(-0.96741972,-0.25317798,0.25317798,-0.96741972,0,0)"
       d="m -418.4471,-908.35712 a 53.309612,53.309612 0 0 1 -39.51207,51.49313 53.309612,53.309612 0 0 1 -59.96502,-24.83832 l 46.16748,-26.65481 z"
       id="path4764"
       style="fill:#ffffff;stroke:#d40000;stroke-width:3.18946433;stroke-miterlimit:4;stroke-dasharray:none;stroke-opacity:1" />
    <path
       id="path4782"
       d="m 175.20465,805.51598 c 2.66317,-0.72467 12.9896,28.69367 23.05008,65.66594 10.06048,36.97226 16.0641,67.56688 13.40093,68.29155 -2.66317,0.72467 -12.9896,-28.69367 -23.05008,-65.66594 -10.06048,-36.97226 -16.0641,-67.56688 -13.40093,-68.29155 z"
       style="fill:#ffffff;fill-rule:evenodd;stroke:none;stroke-width:0;stroke-linecap:butt;stroke-linejoin:miter;stroke-miterlimit:4;stroke-dasharray:none;stroke-opacity:1" />
    <path
       id="path4786"
       d="m 223.77326,800.95961 c 2.75965,-0.0443 5.49033,30.53869 6.09527,68.2655 0.60495,37.7268 -1.14379,68.38157 -3.90344,68.42582 -2.75965,0.0443 -5.49033,-30.53869 -6.09527,-68.2655 -0.60495,-37.7268 1.14379,-68.38157 3.90344,-68.42582 z"
       style="fill:#ffffff;fill-rule:evenodd;stroke:none;stroke-width:0;stroke-linecap:butt;stroke-linejoin:miter;stroke-miterlimit:4;stroke-dasharray:none;stroke-opacity:1" />
    <path
       id="path4790"
       d="m 273.6224,806.42726 c 2.67548,0.67779 -2.90989,31.84673 -12.46734,69.57354 -9.55746,37.7268 -19.48564,67.79557 -22.16112,67.11778 -2.67548,-0.67779 2.90989,-31.84673 12.46734,-69.57354 9.55746,-37.7268 19.48564,-67.79557 22.16112,-67.11778 z"
       style="fill:#ffffff;fill-rule:evenodd;stroke:none;stroke-width:0;stroke-linecap:butt;stroke-linejoin:miter;stroke-miterlimit:4;stroke-dasharray:none;stroke-opacity:1" />
    <path
       id="path4794"
       d="m 313.71853,819.18512 c 2.48264,1.20585 -9.383,30.76212 -26.48582,65.9738 -17.10281,35.21168 -32.99826,62.81061 -35.4809,61.60476 -2.48264,-1.20585 9.383,-30.76212 26.48582,-65.9738 17.10281,-35.21168 32.99826,-62.81061 35.4809,-61.60476 z"
       style="fill:#ffffff;fill-rule:evenodd;stroke:none;stroke-width:0;stroke-linecap:butt;stroke-linejoin:miter;stroke-miterlimit:4;stroke-dasharray:none;stroke-opacity:1" />
    <path
       id="path4798"
       d="m 355.6372,847.43465 c 2.09432,1.79762 -17.2309,27.75165 -43.13664,57.93309 -25.90574,30.18144 -48.63042,53.21759 -50.72474,51.41997 -2.09432,-1.79762 17.2309,-27.75165 43.13664,-57.93309 25.90574,-30.18144 48.63042,-53.21759 50.72474,-51.41997 z"
       style="fill:#ffffff;fill-rule:evenodd;stroke:none;stroke-width:0;stroke-linecap:butt;stroke-linejoin:miter;stroke-miterlimit:4;stroke-dasharray:none;stroke-opacity:1" />
    <path
       id="path4802"
       d="m 382.06418,883.88568 c 1.58152,2.26194 -22.24239,21.65253 -53.17836,43.28256 -30.93598,21.63004 -57.327,37.34906 -58.90852,35.08712 -1.58152,-2.26194 22.24239,-21.65253 53.17836,-43.28256 30.93598,-21.63004 57.327,-37.34906 58.90852,-35.08712 z"
       style="fill:#ffffff;fill-rule:evenodd;stroke:none;stroke-width:0;stroke-linecap:butt;stroke-linejoin:miter;stroke-miterlimit:4;stroke-dasharray:none;stroke-opacity:1" />
    <path
       id="path4806"
       d="m 404.84608,924.89307 c 0.91177,2.60505 -26.92585,14.72145 -62.13754,27.04554 -35.2117,12.3241 -64.52927,20.21201 -65.44104,17.60696 -0.91177,-2.60505 26.92584,-14.72145 62.13753,-27.04554 35.21169,-12.32409 64.52928,-20.21201 65.44105,-17.60696 z"
       style="fill:#ffffff;fill-rule:evenodd;stroke:none;stroke-width:0;stroke-linecap:butt;stroke-linejoin:miter;stroke-miterlimit:4;stroke-dasharray:none;stroke-opacity:1" />
    <path
       id="path4814"
       d="m 127.82255,824.65254 c 2.36357,-1.42518 20.40587,24.15871 40.27299,57.10691 19.86712,32.9482 34.07291,60.84545 31.70934,62.27063 -2.36357,1.42518 -20.40587,-24.15871 -40.27299,-57.10691 -19.86712,-32.9482 -34.07291,-60.84545 -31.70934,-62.27063 z"
       style="fill:#ffffff;fill-rule:evenodd;stroke:none;stroke-width:0;stroke-linecap:butt;stroke-linejoin:miter;stroke-miterlimit:4;stroke-dasharray:none;stroke-opacity:1" />
    <path
       id="path4818"
       d="m 90.458728,853.81725 c 1.960737,-1.94245 25.188182,18.32088 51.846972,45.23065 26.65879,26.90977 46.70358,50.32605 44.74284,52.2685 -1.96074,1.94245 -25.18817,-18.32087 -51.84696,-45.23064 C 108.54279,879.17599 88.497991,855.7597 90.458728,853.81725 Z"
       style="fill:#ffffff;fill-rule:evenodd;stroke:none;stroke-width:0;stroke-linecap:butt;stroke-linejoin:miter;stroke-miterlimit:4;stroke-dasharray:none;stroke-opacity:1" />
    <path
       id="path4822"
       d="m 63.117777,884.79694 c 1.518285,-2.30487 28.470354,12.76695 60.160873,33.64245 31.69051,20.87549 56.17812,39.68854 54.65983,41.99341 -1.51829,2.30487 -28.47035,-12.76695 -60.16087,-33.64245 C 86.087098,905.91486 61.599492,887.10181 63.117777,884.79694 Z"
       style="fill:#ffffff;fill-rule:evenodd;stroke:none;stroke-width:0;stroke-linecap:butt;stroke-linejoin:miter;stroke-miterlimit:4;stroke-dasharray:none;stroke-opacity:1" />
    <path
       id="path4826"
       d="m 43.980993,923.98179 c 0.910956,-2.60533 30.840255,5.48648 66.806467,18.06208 35.96622,12.57561 64.41687,24.89637 63.50591,27.5017 -0.91096,2.60533 -30.84025,-5.48648 -66.80647,-18.06208 -35.966217,-12.57561 -64.416863,-24.89637 -63.505907,-27.5017 z"
       style="fill:#ffffff;fill-rule:evenodd;stroke:none;stroke-width:0;stroke-linecap:butt;stroke-linejoin:miter;stroke-miterlimit:4;stroke-dasharray:none;stroke-opacity:1" />
    <path
       transform="matrix(0.96397263,0.26600143,-0.26600143,0.96397263,0,0)"
       d="M 517.73214,903.53979 A 33.71719,33.71719 0 0 1 492.7416,936.1081 33.71719,33.71719 0 0 1 454.81501,920.39839 l 29.19994,-16.8586 z"
       id="path4833"
       style="fill:#d40000;stroke:#d40000;stroke-width:3.18946409;stroke-miterlimit:4;stroke-dasharray:none;stroke-opacity:1" />
  </g>
</svg>
