<?xml version="1.0" encoding="UTF-8" standalone="no"?>
<svg
   xmlns:dc="http://purl.org/dc/elements/1.1/"
   xmlns:cc="http://creativecommons.org/ns#"
   xmlns:rdf="http://www.w3.org/1999/02/22-rdf-syntax-ns#"
   xmlns:svg="http://www.w3.org/2000/svg"
   xmlns="http://www.w3.org/2000/svg"
   version="1.1"
   id="svg3603"
   viewBox="0 0 250.00001 320.12197"
   height="90.345535mm"
   width="70.555557mm">
  <defs
     id="defs3605" />
  <metadata
     id="metadata3608">
    <rdf:RDF>
      <cc:Work
         rdf:about="">
        <dc:format>image/svg+xml</dc:format>
        <dc:type
           rdf:resource="http://purl.org/dc/dcmitype/StillImage" />
        <dc:title></dc:title>
      </cc:Work>
    </rdf:RDF>
  </metadata>
  <g
     transform="translate(-30,-696.52597)"
     id="layer1">
    <rect
       ry="10.670733"
       y="696.52594"
       x="30"
       height="320.12201"
       width="250.00003"
       id="rect4411"
       style="fill:#d40000;fill-opacity:1" />
    <path
       id="path4423"
       d="m 31.516483,787.04543 c 1.291431,-2.67933 56.628739,22.20678 122.839827,54.68252 6e-5,3e-5 0.28787,0.14121 0.28794,0.14124 60.97074,-29.11568 111.84975,-51.58181 121.6058,-53.45739 0.55391,-0.34914 0.97417,-0.4987 1.14,-0.35324 0.16615,0.14575 0.0709,0.5826 -0.37308,1.37168 -6.76462,5.89986 -57.57955,31.33812 -122.41332,61.46647 7e-5,3e-5 -0.29824,-0.1413 -0.29818,-0.14127 C 84.926846,817.88391 30.22766,789.71935 31.516483,787.04543 Z"
       style="fill:#ffffff;fill-rule:evenodd;stroke:none;stroke-width:10;stroke-linecap:butt;stroke-linejoin:miter;stroke-miterlimit:4;stroke-dasharray:none;stroke-opacity:1" />
    <circle
       r="36.585373"
       cy="839.0564"
       cx="155"
       id="path4435"
       style="fill:#ffffff;fill-opacity:1" />
    <path
       id="path4441"
       d="m 140.51831,820.76373 c 1.71022,-2.16628 6.34212,-1.36344 10.33908,1.79205 3.99695,3.15549 5.85285,7.4746 4.14263,9.64088 -1.71022,2.16628 -6.34212,1.36344 -10.33908,-1.79205 -3.99695,-3.15549 -5.85285,-7.4746 -4.14263,-9.64088 z"
       style="fill:#d40000;fill-rule:evenodd;stroke:none;stroke-width:1px;stroke-linecap:butt;stroke-linejoin:miter;stroke-opacity:1" />
    <path
       id="path4449"
       d="m 169.48173,818.47714 c 1.89818,2.00363 0.19482,6.70294 -3.80213,10.48952 -3.99695,3.78659 -8.7814,5.23363 -10.67958,3.23 -1.89818,-2.00363 -0.19482,-6.70294 3.80213,-10.48952 3.99695,-3.78659 8.7814,-5.23363 10.67958,-3.23 z"
       style="fill:#d40000;fill-rule:evenodd;stroke:none;stroke-width:1px;stroke-linecap:butt;stroke-linejoin:miter;stroke-opacity:1" />
    <path
       id="path4453"
       d="m 141.2805,834.48324 c 0,-2.76 6.31708,-5 14.10061,-5 7.78354,0 14.10062,2.24 14.10062,5 0,2.76 -6.31708,5 -14.10062,5 -7.78353,0 -14.10061,-2.24 -14.10061,-5 z"
       style="fill:#d40000;fill-rule:evenodd;stroke:none;stroke-width:1px;stroke-linecap:butt;stroke-linejoin:miter;stroke-opacity:1" />
    <path
       id="path4457"
       d="m 139.75611,845.91617 c 0,-2.76 6.82927,-5 15.24391,-5 8.41463,0 15.2439,2.24 15.2439,5 0,2.76 -6.82927,5 -15.2439,5 -8.41464,0 -15.24391,-2.24 -15.24391,-5 z"
       style="fill:#d40000;fill-rule:evenodd;stroke:none;stroke-width:1px;stroke-linecap:butt;stroke-linejoin:miter;stroke-opacity:1" />
    <path
       id="path4461"
       d="m 154.61892,834.48324 c 2.75904,-0.0726 5.169,6.35627 5.37937,14.35018 0.21037,7.99391 -1.85813,14.54064 -4.61717,14.61325 -2.75904,0.0726 -5.169,-6.35627 -5.37937,-14.35018 -0.21037,-7.99391 1.85813,-14.54064 4.61717,-14.61325 z"
       style="fill:#d40000;fill-rule:evenodd;stroke:none;stroke-width:1px;stroke-linecap:butt;stroke-linejoin:miter;stroke-opacity:1" />
  </g>
</svg>
