
<svg id="cloudy" xmlns="http://www.w3.org/2000/svg" viewBox="0 0 1024 1024">

	<defs>
		<style>

			@keyframes move {
				0% {
					transform: translateX(-50px) translateY(-10px);
				}
				25% {
					transform: translateX(-80px) translateY(30px);
				}
				50% {
					transform: translateX(-300px) translateY(-80px);
				}
				80% {
					transform: translateX(-100px) translateY(-20px);
				}
				100% {
					transform: translateX(0px) translateY(-5px);
				}
			}

			#sun {
				animation-name: move;
				animation-duration: 6s;
				animation-timing-function: linear;
				animation-iteration-count: infinite;
				animation-fill-mode: forwards;
			}

		</style>
	</defs>

	<!-- sun -->
	<path id="sun" fill="#fd5" d="M851.757 316.436c8.263 91.123-58.908 171.692-150.031 179.955s-171.692-58.908-179.955-150.031c-8.263-91.123 58.908-171.692 150.031-179.955s171.692 58.908 179.955 150.031z"></path>

	<!-- cloud -->
	<path fill="#f9f9f9" d="M316.592 526.697l-136.217 2.634c-22.228-0.994-36.903-13.020-59.13-36.488-10.673-11.751-21.561-40.177-23.283-51.868-5.578-37.875 8.466-64.845 14.762-76.962 53.401-102.793 144.569-89.547 204.676-85.188l48.875 3.545 4.402-21.147c12.634-60.701 66.398-100.18 126.694-117.564 22.195-6.399 41.093-8.936 66.463-8.922 96.631 0.054 174.525 52.613 186.456 125.812l0.875 5.368 15.47 1.907c63.224 7.795 108.671 29.812 133.575 64.713 33.774 47.33 23.318 120.514-23.8 166.594-13.169 12.879-24.748 20.358-39.083 25.245l-9.906 3.377-133.682-0.334c-73.525-0.184-243.241-0.508-377.147-0.721z"></path>
</svg>
