<?xml version="1.0" encoding="UTF-8" standalone="no"?>
<svg
   xmlns:dc="http://purl.org/dc/elements/1.1/"
   xmlns:cc="http://creativecommons.org/ns#"
   xmlns:rdf="http://www.w3.org/1999/02/22-rdf-syntax-ns#"
   xmlns:svg="http://www.w3.org/2000/svg"
   xmlns="http://www.w3.org/2000/svg"
   xmlns:sodipodi="http://sodipodi.sourceforge.net/DTD/sodipodi-0.dtd"
   xmlns:inkscape="http://www.inkscape.org/namespaces/inkscape"
   id="raindrop"
   viewBox="0 0 1024 1024"
   version="1.1"
   inkscape:version="0.91 r13725"
   sodipodi:docname="raindrop-icon.svg">
  <metadata
     id="metadata18">
    <rdf:RDF>
      <cc:Work
         rdf:about="">
        <dc:format>image/svg+xml</dc:format>
        <dc:type
           rdf:resource="http://purl.org/dc/dcmitype/StillImage" />
      </cc:Work>
    </rdf:RDF>
  </metadata>
  <sodipodi:namedview
     pagecolor="#ffffff"
     bordercolor="#666666"
     borderopacity="1"
     objecttolerance="10"
     gridtolerance="10"
     guidetolerance="10"
     inkscape:pageopacity="0"
     inkscape:pageshadow="2"
     inkscape:window-width="1208"
     inkscape:window-height="778"
     id="namedview16"
     showgrid="false"
     inkscape:zoom="0.4609375"
     inkscape:cx="321.01313"
     inkscape:cy="720.48414"
     inkscape:window-x="0"
     inkscape:window-y="23"
     inkscape:window-maximized="0"
     inkscape:current-layer="raindrop" />
  <defs
     id="defs3">
    <style
       id="style5">

			@keyframes drop {
				0% {
					fill-opacity: 0;
				}
				25% {
					fill-opacity: 0.2;
				}
				50% {
					fill-opacity: 1;
					transform: translateY(170px);
				}
				75% {
					fill-opacity: 0.8;
				}
				100% {
					fill-opacity: 0;
					transform: translateY(340px);
				}
			}

			.drops {
				fill-opacity: 1;
				stroke: none;
				animation-name: drop;
				animation-timing-function: linear;
				animation-iteration-count: infinite;

			}

			#d1 {
				animation-delay: 100ms;
				animation-duration: 1.1s;
			}

			#d2 {
				animation-delay: 250ms;
				animation-duration: 1.3s;
			}

			#d3 {
				animation-delay: 300ms;
				animation-duration: 1.2s;
			}

			#d4 {
				animation-delay: 350ms;
				animation-duration: 1s;
			}

			#d5 {
				animation-delay: 180ms;
				animation-duration: 1.3s;
			}


		</style>
  </defs>
  <title
     id="title7">raindrop</title>
  <!-- rain drops -->
  <path
     class="drops"
     id="d1"
     d="m 297.38328,439.947 -2.74181,0 c 7.25308,0 13.13328,6.04028 13.13328,13.49083 l 0,47.21666 c 0,7.45055 -5.8802,13.49083 -13.13328,13.49083 l 2.74181,0 c -7.25308,0 -13.13328,-6.04028 -13.13328,-13.49083 l 0,-47.21666 c 0,-7.45055 5.8802,-13.49083 13.13328,-13.49083 z"
     inkscape:connector-curvature="0"
     style="fill:#b3e0ff;fill-opacity:1;stroke:none" />
  <path
     class="drops"
     id="d2"
     d="m 381.60228,436.017 1.06125,0 c 8.42283,0 15.25028,6.85431 15.25028,15.3083 l 0,56.1319 c 0,8.45487 -6.82832,15.3083 -15.25028,15.3083 l -1.06125,0 c -8.42283,0 -15.25028,-6.8543 -15.25028,-15.3083 l 0,-56.1319 c 0,-8.45487 6.82833,-15.3083 15.25028,-15.3083 z"
     inkscape:connector-curvature="0"
     style="fill:#b3e0ff;fill-opacity:1;stroke:none" />
  <path
     class="drops"
     id="d3"
     d="m 494.64713,434.17 -0.31651,0 c 7.38431,0 13.37113,6.87885 13.37113,15.36549 l 0,54.17277 c 0,8.48571 -5.98601,15.36549 -13.37113,15.36549 l 0.31651,0 c -7.38431,0 -13.37113,-6.87884 -13.37113,-15.36549 l 0,-54.17277 c 0,-8.48571 5.98601,-15.36549 13.37113,-15.36549 z"
     inkscape:connector-curvature="0"
     style="fill:#b3e0ff;fill-opacity:1;stroke:none" />
  <path
     class="drops"
     id="d4"
     d="m 599.44688,432.977 0.49618,0 c 9.49241,0 17.18788,7.28902 17.18788,16.28009 l 0,57.49745 c 0,8.99106 -7.69547,16.28009 -17.18788,16.28009 l -0.49618,0 c -9.49241,0 -17.18788,-7.28903 -17.18788,-16.28009 l 0,-57.49745 c 0,-8.99107 7.69547,-16.28009 17.18788,-16.28009 z"
     inkscape:connector-curvature="0"
     style="fill:#b3e0ff;fill-opacity:1;stroke:none" />
  <path
     class="drops"
     id="d5"
     d="m 698.46935,431.43006 -1.46457,0 c 8.00647,0 14.49766,6.95818 14.49766,15.5426 l 0,56.1573 c 0,8.58354 -6.49038,15.5426 -14.49766,15.5426 l 1.46457,0 c -8.00646,0 -14.49766,-6.95818 -14.49766,-15.5426 l 0,-56.1573 c 0,-8.58354 6.49038,-15.5426 14.49766,-15.5426 z"
     inkscape:connector-curvature="0"
     style="fill:#b3e0ff;fill-opacity:1;stroke:none" />
  <!-- the cloud -->
  <path
     d="m 204.53609,543.97603 c -15.083,-1.45 -35.377,-6.978 -48.351,-13.17 -35.03999,-16.723 -62.256988,-50.889 -70.125988,-88.031 -3.491,-16.478 -2.053,-42.149 3.239,-57.811 13.312998,-39.403 49.214998,-66.256 100.467988,-75.148 7.13,-1.237 16.654,-2.259 21.165,-2.271 10.46,-0.028 12.533,-1.309 11.388,-7.035 -2.037,-10.183 2.588,-35.87999 10.031,-55.73699 19.479,-51.968 79.141,-100.31 154.642,-125.303 41.141,-13.618 72.699,-19.038 117.502,-20.178006 47.216,-1.202 81.791,3.500006 121.151,16.474006 88.041,29.022 144.47,90.493 162.672,177.20499 l 3.217,15.326 20.58,0.196 c 30.447,0.29 48.068,4.119 67.51,14.669 42.356,22.986 67.675,72.178 61.404,119.301 -7.457,56.036 -49.773,92.401 -114.681,98.552 -8.202,0.777 -134.181,1.746 -287.551,2.212 -150.125,0.456 -283.792,1.095 -297.038,1.42 -13.246,0.325 -29.996,0.023 -37.221,-0.672 z"
     id="path14"
     inkscape:connector-curvature="0"
     style="fill:#e6e6e6;fill-opacity:1" />
</svg>
