<svg
   xmlns:svg="http://www.w3.org/2000/svg"
   xmlns="http://www.w3.org/2000/svg"
   xmlns:sodipodi="http://sodipodi.sourceforge.net/DTD/sodipodi-0.dtd"
   xmlns:inkscape="http://www.inkscape.org/namespaces/inkscape"
   id="snowfall"
   viewBox="0 0 1417.3228 1417.3228">

   <defs>
		<style>

			@keyframes drop {
				0% {
					stroke-opacity: 0;
				}
				25% {
					stroke-opacity: 0.5;
				}
				50% {
					stroke-opacity: 1;
					transform: translateY(170px);
				}
				75% {
					stroke-opacity: 0.6;
				}
				100% {
					stroke-opacity: 0;
					transform: translateY(400px);
				}
			}


			.snows{
				animation-name: drop;
				animation-timing-function: linear;
				animation-iteration-count: infinite;
			}

			#s1 {
				animation-duration: 1s;
			}
			#s2 {
				animation-delay: 0.5s;
				animation-duration: 1.4s;
			}
			#s3 {
				animation-delay: 0.4s;
				animation-duration: 1.2s;
			}
			#s4 {
				animation-delay: 0.6s;
				animation-duration: 1.3s;
			}
			#s5 {
				animation-delay: 0.2s;
				animation-duration: 1.5s;
			}

		</style>
	</defs>

  <g
     id="layer1"
     transform="translate(21.019617,419.01044)"
     style="stroke:#ffffff;stroke-width:3">

    <g
       style="fill:none;stroke-linecap:round stroke:#ffffff; stroke-width:3;">

        <g
    		id="s1" class="snows"
       		transform="translate(-1.0102,4.0406)">
      		<g
	        	style="stroke:#ffffff;stroke-width:3">
		        <g
           			transform="translate(90,-48.571)"
		           style="fill:none;stroke-linecap:round">
          <path
             id="path5444"
             d="m 331.33,280.61 0,72.731"
             inkscape:connector-curvature="0" />
          <path
             id="path5446"
             d="m 291.93,318.99 77.782,-1.0102"
             inkscape:connector-curvature="0" />
          <path
             id="path5448"
             d="m 305.38,288.88 51.896,59.501"
             inkscape:connector-curvature="0" />
          <path
             id="path5450"
             d="m 360.12,288.6 -56.57,59.48"
             inkscape:connector-curvature="0" />
          <path
             id="path5462"
             d="m 321.43,286.65 10,7.1429 10.714,-7.8572"
             inkscape:connector-curvature="0" />
          <path
             id="path5464"
             d="m 348.57,288.08 -1.4286,12.143 15.714,-0.71429"
             inkscape:connector-curvature="0" />
          <path
             id="path5466"
             d="m 362.14,308.08 -12.14,9.28 10.714,8.5714"
             inkscape:connector-curvature="0" />
          <path
             id="path5468"
             d="m 342.14,347.36 3.5714,-13.571 13.571,1.4286"
             inkscape:connector-curvature="0" />
          <path
             id="path5470"
             d="m 320,348.79 11.429,-12.143 7.8571,11.429"
             inkscape:connector-curvature="0" />
          <path
             id="path5472"
             d="m 303.57,335.22 12.857,-0.71429 0,14.286"
             inkscape:connector-curvature="0" />
          <path
             id="path5476"
             d="m 300,308.08 13.571,10.714 -12.857,7.8571"
             inkscape:connector-curvature="0" />
          <path
             id="path5478"
             d="m 300,298.08 13.57,1.43 1.43,-15.72"
             inkscape:connector-curvature="0" />
      			</g>
      		</g>
      	</g>

      	<g
    		id="s2" class="snows"
       		transform="translate(-1.0102,4.0406)">
      		<g
	        	style="stroke:#ffffff;stroke-width:3">
		        <g
         		   transform="translate(250.08,-38.153)"
		           style="fill:none;stroke-linecap:round">
        	
	        <path
	           id="path5496"
	           d="m 331.33,280.61 0,72.731"
	           inkscape:connector-curvature="0" />
	        <path
	           id="path5498"
	           d="m 291.93,318.99 77.782,-1.0102"
	           inkscape:connector-curvature="0" />
	        <path
	           id="path5500"
	           d="m 305.38,288.88 51.896,59.501"
	           inkscape:connector-curvature="0" />
	        <path
	           id="path5502"
	           d="m 360.12,288.6 -56.57,59.48"
	           inkscape:connector-curvature="0" />
	        <path
	           id="path5504"
	           d="m 321.43,286.65 10,7.1429 10.714,-7.8572"
	           inkscape:connector-curvature="0" />
	        <path
	           id="path5506"
	           d="m 348.57,288.08 -1.4286,12.143 15.714,-0.71429"
	           inkscape:connector-curvature="0" />
	        <path
	           id="path5508"
	           d="m 362.14,308.08 -12.14,9.28 10.714,8.5714"
	           inkscape:connector-curvature="0" />
	        <path
	           id="path5510"
	           d="m 342.14,347.36 3.5714,-13.571 13.571,1.4286"
	           inkscape:connector-curvature="0" />
	        <path
	           id="path5512"
	           d="m 320,348.79 11.429,-12.143 7.8571,11.429"
	           inkscape:connector-curvature="0" />
	        <path
	           id="path5514"
	           d="m 303.57,335.22 12.857,-0.71429 0,14.286"
	           inkscape:connector-curvature="0" />
	        <path
	           id="path5516"
	           d="m 300,308.08 13.571,10.714 -12.857,7.8571"
	           inkscape:connector-curvature="0" />
	        <path
	           id="path5518"
	           d="m 300,298.08 13.57,1.43 1.43,-15.72"
	           inkscape:connector-curvature="0" />
      			</g>
      		</g>
      	</g>

      	<g
    		id="s3" class="snows"
       		transform="translate(-1.0102,4.0406)">
      		<g
	        	style="stroke:#ffffff;stroke-width:3">
		        <g
         		   transform="translate(473.78,-39.163)"
		           style="fill:none;stroke-linecap:round">
   
	        <path
	           id="path5522"
	           d="m 331.33,280.61 0,72.731"
	           inkscape:connector-curvature="0" />
	        <path
	           id="path5524"
	           d="m 291.93,318.99 77.782,-1.0102"
	           inkscape:connector-curvature="0" />
	        <path
	           id="path5526"
	           d="m 305.38,288.88 51.896,59.501"
	           inkscape:connector-curvature="0" />
	        <path
	           id="path5528"
	           d="m 360.12,288.6 -56.57,59.48"
	           inkscape:connector-curvature="0" />
	        <path
	           id="path5530"
	           d="m 321.43,286.65 10,7.1429 10.714,-7.8572"
	           inkscape:connector-curvature="0" />
	        <path
	           id="path5532"
	           d="m 348.57,288.08 -1.4286,12.143 15.714,-0.71429"
	           inkscape:connector-curvature="0" />
	        <path
	           id="path5534"
	           d="m 362.14,308.08 -12.14,9.28 10.714,8.5714"
	           inkscape:connector-curvature="0" />
	        <path
	           id="path5536"
	           d="m 342.14,347.36 3.5714,-13.571 13.571,1.4286"
	           inkscape:connector-curvature="0" />
	        <path
	           id="path5538"
	           d="m 320,348.79 11.429,-12.143 7.8571,11.429"
	           inkscape:connector-curvature="0" />
	        <path
	           id="path5540"
	           d="m 303.57,335.22 12.857,-0.71429 0,14.286"
	           inkscape:connector-curvature="0" />
	        <path
	           id="path5542"
	           d="m 300,308.08 13.571,10.714 -12.857,7.8571"
	           inkscape:connector-curvature="0" />
	        <path
	           id="path5544"
	           d="m 300,298.08 13.57,1.43 1.43,-15.72"
	           inkscape:connector-curvature="0" />
      			</g>
      		</g>
      	</g>

      	<g
    		id="s4" class="snows"
       		transform="translate(-1.0102,4.0406)">
      		<g
	        	style="stroke:#ffffff;stroke-width:3">
		        <g
         		   transform="translate(650.07,-64.759395)"
		           style="fill:none;stroke-linecap:round">
	        <path
	           id="path5548"
	           d="m 331.33,280.61 0,72.731"
	           inkscape:connector-curvature="0" />
	        <path
	           id="path5550"
	           d="m 291.93,318.99 77.782,-1.0102"
	           inkscape:connector-curvature="0" />
	        <path
	           id="path5552"
	           d="m 305.38,288.88 51.896,59.501"
	           inkscape:connector-curvature="0" />
	        <path
	           id="path5554"
	           d="m 360.12,288.6 -56.57,59.48"
	           inkscape:connector-curvature="0" />
	        <path
	           id="path5556"
	           d="m 321.43,286.65 10,7.1429 10.714,-7.8572"
	           inkscape:connector-curvature="0" />
	        <path
	           id="path5558"
	           d="m 348.57,288.08 -1.4286,12.143 15.714,-0.71429"
	           inkscape:connector-curvature="0" />
	        <path
	           id="path5560"
	           d="m 362.14,308.08 -12.14,9.28 10.714,8.5714"
	           inkscape:connector-curvature="0" />
	        <path
	           id="path5562"
	           d="m 342.14,347.36 3.5714,-13.571 13.571,1.4286"
	           inkscape:connector-curvature="0" />
	        <path
	           id="path5564"
	           d="m 320,348.79 11.429,-12.143 7.8571,11.429"
	           inkscape:connector-curvature="0" />
	        <path
	           id="path5566"
	           d="m 303.57,335.22 12.857,-0.71429 0,14.286"
	           inkscape:connector-curvature="0" />
	        <path
	           id="path5568"
	           d="m 300,308.08 13.571,10.714 -12.857,7.8571"
	           inkscape:connector-curvature="0" />
	        <path
	           id="path5570"
	           d="m 300,298.08 13.57,1.43 1.43,-15.72"
	           inkscape:connector-curvature="0" />
      			</g>
      		</g>
      	</g>

    	<g
    		id="s5" class="snows"
       		transform="translate(-1.0102,4.0406)">
      		<g
	        	style="stroke:#ffffff;stroke-width:3">
		        <g
		           id="g5572"
		           transform="translate(367.22,-106.72)"
		           style="fill:none;stroke-linecap:round">
		          <path
		             id="path5574"
		             d="m 331.33,280.61 0,72.731"
		             inkscape:connector-curvature="0" />
		          <path
		             id="path5576"
		             d="m 291.93,318.99 c 25.927,-0.33672 51.854,-0.67343 77.782,-1.0102"
		             inkscape:connector-curvature="0" />
		          <path
		             id="path5578"
		             d="m 305.38,288.88 c 17.299,19.834 34.598,39.667 51.896,59.501"
		             inkscape:connector-curvature="0" />
		          <path
		             id="path5580"
		             d="m 360.12,288.6 c -18.859,19.827 -37.718,39.655 -56.576,59.482"
		             inkscape:connector-curvature="0" />
		          <path
		             id="path5582"
		             d="m 321.43,286.65 c 3.3333,2.381 6.6667,4.7619 10,7.1429 3.5714,-2.619 7.1429,-5.2381 10.714,-7.8572"
		             inkscape:connector-curvature="0" />
		          <path
		             id="path5584"
		             d="m 348.57,288.08 c -0.47619,4.0476 -0.95238,8.0952 -1.4286,12.143 5.2381,-0.2381 10.476,-0.47619 15.714,-0.71429"
		             inkscape:connector-curvature="0" />
		          <path
		             id="path5586"
		             d="m 362.14,308.08 c -4.0476,3.0952 -8.0952,6.1905 -12.143,9.2857 3.5714,2.8571 7.1429,5.7143 10.714,8.5714"
		             inkscape:connector-curvature="0" />
		          <path
		             id="path5588"
		             d="m 342.14,347.36 3.5714,-13.571 c 4.5238,0.47619 9.0476,0.95239 13.571,1.4286"
		             inkscape:connector-curvature="0" />
		          <path
		             id="path5590"
		             d="m 320,348.79 11.429,-12.143 c 2.619,3.8095 5.2381,7.619 7.8571,11.429"
		             inkscape:connector-curvature="0" />
		          <path
		             id="path5592"
		             d="m 303.57,335.22 c 4.2857,-0.2381 8.5714,-0.47619 12.857,-0.71429 l 0,14.286"
		             inkscape:connector-curvature="0" />
		          <path
		             id="path5594"
		             d="m 300,308.08 13.571,10.714 -12.857,7.8571"
		             inkscape:connector-curvature="0" />
		          <path
		             id="path5596"
		             d="m 300,298.08 c 4.5238,0.47619 9.0476,0.95238 13.571,1.4286 l 1.4286,-15.714"
		             inkscape:connector-curvature="0" />
		        </g>
      		</g>
    	</g>
    </g>

  </g>

  <!-- the cloud -->
  <path fill="#e6e6e6" fill-opacity="1" 
     d="m 289.60093,753.28379 c -20.88847,-2.00744 -48.99367,-9.66064 -66.96138,-18.23311 -48.52696,-23.15202 -86.21984,-70.45288 -97.11764,-121.87383 -4.83469,-22.81284 -2.84319,-58.35285 4.4857,-80.03598 18.43721,-54.55118 68.15795,-91.7276 139.13833,-104.03806 9.87435,-1.71256 23.06415,-3.12746 29.31144,-3.14408 14.48608,-0.0388 17.35698,-1.81223 15.77127,-9.73955 -2.82105,-14.09776 3.58412,-49.67378 13.89195,-77.16465 26.9765,-71.94669 109.60251,-138.87339 214.16398,-173.47476 56.97626,-18.85333 100.68099,-26.357 162.72874,-27.93527 65.38953,-1.6641 113.27251,4.84555 167.78225,22.8073 121.92814,40.17929 200.07673,125.28233 225.28473,245.33008 l 4.4552,21.21796 28.5013,0.27135 c 42.1661,0.40148 66.5695,5.70252 93.4947,20.30838 58.659,31.82279 93.7233,99.92627 85.0386,165.16534 -10.3273,77.5786 -68.9308,127.92384 -158.822,136.43955 -11.3589,1.0757 -185.82748,2.41723 -398.22988,3.06238 -207.90838,0.6313 -393.02405,1.51596 -411.36847,1.96591 -18.34441,0.44995 -41.54151,0.0318 -51.54743,-0.93034 z"/>

</svg>
