<?xml version="1.0" encoding="UTF-8" standalone="no"?>
<svg
   xmlns:osb="http://www.openswatchbook.org/uri/2009/osb"
   xmlns:dc="http://purl.org/dc/elements/1.1/"
   xmlns:cc="http://creativecommons.org/ns#"
   xmlns:rdf="http://www.w3.org/1999/02/22-rdf-syntax-ns#"
   xmlns:svg="http://www.w3.org/2000/svg"
   xmlns="http://www.w3.org/2000/svg"
   xmlns:sodipodi="http://sodipodi.sourceforge.net/DTD/sodipodi-0.dtd"
   xmlns:inkscape="http://www.inkscape.org/namespaces/inkscape"
   version="1.1"
   id="svg2"
   viewBox="0 0 192.29883 192.29683"
   height="54.270439mm"
   width="54.271004mm"
   inkscape:version="0.91 r13725"
   sodipodi:docname="coin.svg">
  <sodipodi:namedview
     pagecolor="#ffffff"
     bordercolor="#666666"
     borderopacity="1"
     objecttolerance="10"
     gridtolerance="10"
     guidetolerance="10"
     inkscape:pageopacity="0"
     inkscape:pageshadow="2"
     inkscape:window-width="1037"
     inkscape:window-height="660"
     id="namedview14"
     showgrid="false"
     inkscape:zoom="1.6687721"
     inkscape:cx="118.56652"
     inkscape:cy="101.19594"
     inkscape:window-x="0"
     inkscape:window-y="0"
     inkscape:window-maximized="0"
     inkscape:current-layer="layer1"
     fit-margin-top="0"
     fit-margin-left="0"
     fit-margin-right="0"
     fit-margin-bottom="0" />
  <defs
     id="defs4">
    <linearGradient
       id="linearGradient4142"
       osb:paint="solid">
      <stop
         style="stop-color:#ffffff;stop-opacity:1;"
         offset="0"
         id="stop4144" />
    </linearGradient>
  </defs>
  <metadata
     id="metadata7">
    <rdf:RDF>
      <cc:Work
         rdf:about="">
        <dc:format>image/svg+xml</dc:format>
        <dc:type
           rdf:resource="http://purl.org/dc/dcmitype/StillImage" />
        <dc:title></dc:title>
      </cc:Work>
    </rdf:RDF>
  </metadata>
  <g
     transform="matrix(0.98535623,0,0,0.98535623,-34.904526,-810.33394)"
     id="layer1">
    <path
       style="fill:#000000;fill-opacity:1;stroke:#000000;stroke-width:2.02972269;stroke-miterlimit:4;stroke-dasharray:none;stroke-opacity:1"
       d="m 133.00258,823.39149 a 96.563034,96.563034 0 0 0 -96.564463,96.56248 96.563034,96.563034 0 0 0 96.564463,96.56243 96.563034,96.563034 0 0 0 96.56247,-96.56243 96.563034,96.563034 0 0 0 -96.56247,-96.56248 z m 0,1.38751 a 94.871185,94.871185 0 0 1 94.86971,94.8717 94.871185,94.871185 0 0 1 -94.86971,94.8697 94.871185,94.871185 0 0 1 -94.871707,-94.8697 94.871185,94.871185 0 0 1 94.871707,-94.8717 z"
       id="path4285"
       inkscape:connector-curvature="0" />
    <path
       style="fill:#000000;fill-opacity:1;fill-rule:evenodd"
       d="m 133.00059,838.30819 a 81.645653,81.645653 0 0 0 -81.644803,81.64679 81.645653,81.645653 0 0 0 81.644803,81.64472 81.645653,81.645653 0 0 0 81.64679,-81.64472 81.645653,81.645653 0 0 0 -81.64679,-81.64679 z m 0.1447,8.53515 11.49845,20.54499 -11.78587,20.04153 -11.49845,-20.54301 11.78587,-20.04351 z m -18.57672,47.12964 36.86603,0 c 4.83709,0 8.72939,3.8943 8.72939,8.7313 l 0,36.8641 c 0,4.8371 -3.8923,8.7314 -8.72939,8.7314 l -36.86603,0 c -4.83709,0 -8.73137,-3.8943 -8.73138,-8.7314 l 0,-36.8641 c 0,-4.837 3.89429,-8.7313 8.73138,-8.7313 z m 71.97191,14.8681 19.17731,12.2298 -20.57274,11.4014 -19.17732,-12.2299 20.57275,-11.4013 z m -105.196733,0.5352 19.952333,11.766 -19.839353,10.7849 -19.95035,-11.7641 19.83737,-10.7868 z m 51.985883,43.2406 11.18925,20.196 -11.84732,21.0762 -11.18727,-20.1961 11.84534,-21.0761 z"
       id="path4293"
       inkscape:connector-curvature="0" />
  </g>
</svg>
