<?xml version="1.0" encoding="UTF-8" standalone="no"?>
<svg
   xmlns:dc="http://purl.org/dc/elements/1.1/"
   xmlns:cc="http://creativecommons.org/ns#"
   xmlns:rdf="http://www.w3.org/1999/02/22-rdf-syntax-ns#"
   xmlns:svg="http://www.w3.org/2000/svg"
   xmlns="http://www.w3.org/2000/svg"
   width="112.88889mm"
   height="68.21994mm"
   viewBox="0 0 399.99999 241.72419"
   id="svg4736"
   version="1.1">
  <defs
     id="defs4738" />
  <metadata
     id="metadata4741">
    <rdf:RDF>
      <cc:Work
         rdf:about="">
        <dc:format>image/svg+xml</dc:format>
        <dc:type
           rdf:resource="http://purl.org/dc/dcmitype/StillImage" />
        <dc:title></dc:title>
      </cc:Work>
    </rdf:RDF>
  </metadata>
  <g
     id="layer1"
     transform="translate(-25.82807,-793.32402)">
    <path
       transform="translate(25.82807,793.32402)"
       id="path4760"
       d="M 199.08008 1.5957031 A 205.03699 205.03699 0 0 0 1.9589844 152.36914 L 199.68555 206.63086 L 398.05469 154.76172 A 205.03699 205.03699 0 0 0 200.92578 1.5976562 A 205.03699 205.03699 0 0 0 199.08008 1.5957031 z M 197.94531 7.6347656 C 200.70496 7.5904656 203.43608 38.173581 204.04102 75.900391 C 204.64597 113.62719 202.89637 144.28192 200.13672 144.32617 C 197.37707 144.37047 194.64596 113.78736 194.04102 76.060547 C 193.43607 38.333747 195.18566 7.6790156 197.94531 7.6347656 z M 149.37695 12.191406 C 152.04012 11.466736 162.3653 40.885152 172.42578 77.857422 C 182.48626 114.82968 188.4913 145.42572 185.82812 146.15039 C 183.16495 146.87506 172.83782 117.45664 162.77734 80.484375 C 152.71686 43.512115 146.71378 12.916076 149.37695 12.191406 z M 247.79492 13.103516 C 250.4704 13.781306 244.88362 44.950924 235.32617 82.677734 C 225.76871 120.40453 215.8415 150.47271 213.16602 149.79492 C 210.49054 149.11713 216.07536 117.94751 225.63281 80.220703 C 235.19027 42.493903 245.11944 12.425726 247.79492 13.103516 z M 287.61914 25.832031 C 287.72255 25.814101 287.81304 25.823645 287.89062 25.861328 C 290.37327 27.067178 278.50712 56.622304 261.4043 91.833984 C 244.30149 127.04566 228.40647 154.6453 225.92383 153.43945 C 223.44119 152.2336 235.30734 122.67848 252.41016 87.466797 C 268.9785 53.355482 284.41353 26.387855 287.61914 25.832031 z M 102.26172 31.273438 C 105.48762 31.509524 123.02131 56.516978 142.26758 88.435547 C 162.1347 121.38375 176.34013 149.28185 173.97656 150.70703 C 171.61299 152.13221 153.57024 126.54781 133.70312 93.599609 C 113.83601 60.651409 99.630578 32.753305 101.99414 31.328125 C 102.068 31.283588 102.15766 31.265822 102.26172 31.273438 z M 329.55273 54.013672 C 329.65794 54.021884 329.74315 54.055153 329.80859 54.111328 C 331.90291 55.908948 312.57761 81.861527 286.67188 112.04297 C 260.76614 142.22441 238.04159 165.26051 235.94727 163.46289 C 233.85295 161.66527 253.17824 135.71269 279.08398 105.53125 C 304.18017 76.29298 326.29127 53.759101 329.55273 54.013672 z M 64.876953 60.375 C 68.047177 59.823022 90.652781 79.655762 116.47852 105.72461 C 143.13731 132.63438 163.18144 156.04974 161.2207 157.99219 C 159.25996 159.93464 136.03184 139.67149 109.37305 112.76172 C 82.714233 85.851941 62.670122 62.436591 64.630859 60.494141 C 64.692132 60.433439 64.774688 60.392806 64.876953 60.375 z M 355.6543 90.345703 C 355.94202 90.349545 356.13748 90.421129 356.23633 90.5625 C 357.81785 92.82444 333.99456 112.21372 303.05859 133.84375 C 272.12261 155.47379 245.72996 171.19358 244.14844 168.93164 C 242.56692 166.6697 266.39217 147.27847 297.32812 125.64844 C 326.33061 105.37027 351.33847 90.288077 355.6543 90.345703 z M 37.867188 91.242188 C 42.195312 91.075321 67.74131 105.54445 97.451172 125.11523 C 129.14168 145.99072 153.62962 164.8045 152.11133 167.10938 C 150.59304 169.41425 123.63974 154.3423 91.949219 133.4668 C 60.258707 112.59131 35.770781 93.777526 37.289062 91.472656 C 37.383955 91.328602 37.578646 91.25331 37.867188 91.242188 z M 19.810547 130.16992 C 26.641197 130.14531 53.488549 137.71705 84.958984 148.7207 C 120.9252 161.29631 149.3758 173.61537 148.46484 176.2207 C 147.55388 178.82603 117.62442 170.73576 81.658203 158.16016 C 45.691986 145.58455 17.241388 133.26353 18.152344 130.6582 C 18.266213 130.33254 18.83474 130.17344 19.810547 130.16992 z M 377.38867 131.07227 C 378.34636 131.08182 378.90361 131.24273 379.01758 131.56836 C 379.92935 134.17341 352.09255 146.29114 316.88086 158.61523 C 281.66916 170.93933 252.35122 178.82575 251.43945 176.2207 C 250.52768 173.61565 278.36448 161.49987 313.57617 149.17578 C 344.3864 138.3922 370.68488 131.00538 377.38867 131.07227 z M 200.27148 151.56836 A 53.309612 53.309612 0 0 1 251.99414 190.7793 L 200.58203 204.87695 L 149.00977 191.38086 A 53.309612 53.309612 0 0 1 200.27148 151.56836 z "
       style="fill:#000000;stroke:#000000;stroke-width:3.18946433;stroke-miterlimit:4;stroke-dasharray:none;stroke-opacity:1" />
    <path
       style="fill:#000000;stroke:#000000;stroke-width:3.18946409;stroke-miterlimit:4;stroke-dasharray:none;stroke-opacity:1"
       id="path4833"
       d="M 517.73214,903.53979 A 33.71719,33.71719 0 0 1 492.7416,936.1081 33.71719,33.71719 0 0 1 454.81501,920.39839 l 29.19994,-16.8586 z"
       transform="matrix(0.96397263,0.26600143,-0.26600143,0.96397263,0,0)" />
  </g>
</svg>
