<?xml version="1.0" encoding="UTF-8" standalone="no"?>
<svg
   xmlns:dc="http://purl.org/dc/elements/1.1/"
   xmlns:cc="http://creativecommons.org/ns#"
   xmlns:rdf="http://www.w3.org/1999/02/22-rdf-syntax-ns#"
   xmlns:svg="http://www.w3.org/2000/svg"
   xmlns="http://www.w3.org/2000/svg"
   xmlns:sodipodi="http://sodipodi.sourceforge.net/DTD/sodipodi-0.dtd"
   xmlns:inkscape="http://www.inkscape.org/namespaces/inkscape"
   version="1.1"
   id="svg5044"
   viewBox="0 0 180 285.40315"
   height="80.547112mm"
   width="50.799999mm"
   inkscape:version="0.91 r13725"
   sodipodi:docname="firecracker.svg">
  <sodipodi:namedview
     pagecolor="#ffffff"
     bordercolor="#666666"
     borderopacity="1"
     objecttolerance="10"
     gridtolerance="10"
     guidetolerance="10"
     inkscape:pageopacity="0"
     inkscape:pageshadow="2"
     inkscape:window-width="1030"
     inkscape:window-height="660"
     id="namedview6525"
     showgrid="false"
     inkscape:zoom="1.6538009"
     inkscape:cx="83.043086"
     inkscape:cy="155.33819"
     inkscape:window-x="0"
     inkscape:window-y="0"
     inkscape:window-maximized="0"
     inkscape:current-layer="layer1" />
  <defs
     id="defs5046">
    <clipPath
       id="clipPath3384"
       clipPathUnits="userSpaceOnUse">
      <rect
         y="39.555569"
         x="63.221195"
         height="864.69055"
         width="575.78699"
         id="rect3386"
         style="fill:none" />
    </clipPath>
    <clipPath
       id="clipPath3388"
       clipPathUnits="userSpaceOnUse">
      <rect
         y="62.412712"
         x="64.649765"
         height="864.69055"
         width="575.78699"
         id="rect3390"
         style="fill:none" />
    </clipPath>
    <clipPath
       id="clipPath3392"
       clipPathUnits="userSpaceOnUse">
      <rect
         y="62.412712"
         x="64.649765"
         height="864.69055"
         width="575.78699"
         id="rect3394"
         style="fill:none" />
    </clipPath>
    <clipPath
       id="clipPath3396"
       clipPathUnits="userSpaceOnUse">
      <rect
         y="62.412712"
         x="64.649765"
         height="864.69055"
         width="575.78699"
         id="rect3398"
         style="fill:none" />
    </clipPath>
    <clipPath
       id="clipPath3400"
       clipPathUnits="userSpaceOnUse">
      <rect
         y="62.412712"
         x="64.649765"
         height="864.69055"
         width="575.78699"
         id="rect3402"
         style="fill:none" />
    </clipPath>
    <clipPath
       id="clipPath3404"
       clipPathUnits="userSpaceOnUse">
      <rect
         y="62.412712"
         x="64.649765"
         height="864.69055"
         width="575.78699"
         id="rect3406"
         style="fill:none" />
    </clipPath>
    <clipPath
       id="clipPath3408"
       clipPathUnits="userSpaceOnUse">
      <rect
         y="62.412712"
         x="64.649765"
         height="864.69055"
         width="575.78699"
         id="rect3410"
         style="fill:none" />
    </clipPath>
    <clipPath
       id="clipPath3412"
       clipPathUnits="userSpaceOnUse">
      <rect
         y="62.412712"
         x="64.649765"
         height="864.69055"
         width="575.78699"
         id="rect3414"
         style="fill:none" />
    </clipPath>
    <clipPath
       id="clipPath3418"
       clipPathUnits="userSpaceOnUse">
      <rect
         y="39.555569"
         x="55.139973"
         height="854.58911"
         width="591.9494"
         id="rect3420"
         style="fill:none" />
    </clipPath>
    <clipPath
       id="clipPath3422"
       clipPathUnits="userSpaceOnUse">
      <rect
         y="62.412712"
         x="56.568542"
         height="854.58911"
         width="591.9494"
         id="rect3424"
         style="fill:none" />
    </clipPath>
    <clipPath
       id="clipPath3426"
       clipPathUnits="userSpaceOnUse">
      <rect
         y="62.412712"
         x="56.568542"
         height="854.58911"
         width="591.9494"
         id="rect3428"
         style="fill:none" />
    </clipPath>
    <clipPath
       id="clipPath3430"
       clipPathUnits="userSpaceOnUse">
      <rect
         y="62.412712"
         x="56.568542"
         height="854.58911"
         width="591.9494"
         id="rect3432"
         style="fill:none" />
    </clipPath>
    <clipPath
       id="clipPath3434"
       clipPathUnits="userSpaceOnUse">
      <rect
         y="62.412712"
         x="56.568542"
         height="854.58911"
         width="591.9494"
         id="rect3436"
         style="fill:none" />
    </clipPath>
    <clipPath
       id="clipPath3438"
       clipPathUnits="userSpaceOnUse">
      <rect
         y="62.412712"
         x="56.568542"
         height="854.58911"
         width="591.9494"
         id="rect3440"
         style="fill:none" />
    </clipPath>
    <clipPath
       id="clipPath3442"
       clipPathUnits="userSpaceOnUse">
      <rect
         y="62.412712"
         x="56.568542"
         height="854.58911"
         width="591.9494"
         id="rect3444"
         style="fill:none" />
    </clipPath>
    <clipPath
       id="clipPath3446"
       clipPathUnits="userSpaceOnUse">
      <rect
         y="62.412712"
         x="56.568542"
         height="854.58911"
         width="591.9494"
         id="rect3448"
         style="fill:none" />
    </clipPath>
  </defs>
  <metadata
     id="metadata5049">
    <rdf:RDF>
      <cc:Work
         rdf:about="">
        <dc:format>image/svg+xml</dc:format>
        <dc:type
           rdf:resource="http://purl.org/dc/dcmitype/StillImage" />
        <dc:title />
      </cc:Work>
    </rdf:RDF>
  </metadata>
  <g
     transform="translate(-46.727494,-741.00471)"
     id="layer1">
    <path
       transform="matrix(0.35765929,0,0,0.35765929,10.505288,707.71648)"
       clip-path="url(#clipPath3438)"
       id="path5078"
       d="m 599.99683,270.50021 c 2.76,0.005 4.78885,124.00854 4.5287,276.79425 -0.26016,152.78572 -2.71129,276.7819 -5.47129,276.7772 -2.76,-0.005 -4.78885,-124.00851 -4.5287,-276.79422 0.26016,-152.78572 2.71129,-276.78193 5.47129,-276.77723 z"
       style="fill:#000000;fill-rule:evenodd;stroke:none;stroke-width:1px;stroke-linecap:butt;stroke-linejoin:miter;stroke-opacity:1" />
    <path
       transform="matrix(0.35765929,0,0,0.35765929,10.505288,707.71648)"
       clip-path="url(#clipPath3434)"
       id="path5103"
       d="m 107.04133,270.93363 c 2.75999,0.007 4.67998,124.17287 4.2857,277.15574 -0.39429,152.98286 -2.95428,277.13709 -5.71427,277.12998 -2.75999,-0.007 -4.67998,-124.17289 -4.2857,-277.15576 0.39429,-152.98286 2.95428,-277.13707 5.71427,-277.12996 z"
       style="fill:#000000;fill-rule:evenodd;stroke:none;stroke-width:1px;stroke-linecap:butt;stroke-linejoin:miter;stroke-opacity:1" />
    <text
       transform="matrix(0.35765929,0,0,0.35765929,10.505288,707.71648)"
       clip-path="url(#clipPath3422)"
       id="text5137"
       y="448.29099"
       x="-244.45692"
       style="font-style:normal;font-weight:normal;font-size:40px;line-height:125%;font-family:sans-serif;letter-spacing:0px;word-spacing:0px;fill:#000000;fill-opacity:1;stroke:none;stroke-width:1px;stroke-linecap:butt;stroke-linejoin:miter;stroke-opacity:1"
       xml:space="preserve"><tspan
         id="tspan5141"
         y="448.29099"
         x="-244.45692" /></text>
    <g
       clip-path="url(#clipPath3418)"
       transform="matrix(0.44741946,0,0,0.42293941,-22.475201,680.66983)"
       id="g3378">
      <path
         style="fill:#000000;fill-opacity:1;stroke:none;stroke-width:10;stroke-miterlimit:4;stroke-dasharray:none;stroke-opacity:1"
         d="M 88.697266 97.345703 C 88.595202 97.345703 88.492269 97.381151 88.414062 97.455078 L 22.505859 159.75977 C 22.349447 159.90762 22.349447 160.14511 22.505859 160.29297 L 88.414062 222.5957 C 88.570475 222.74356 88.822103 222.74356 88.978516 222.5957 L 154.88867 160.29297 C 155.04508 160.14511 155.04508 159.90762 154.88867 159.75977 L 88.978516 97.455078 C 88.900309 97.381151 88.799329 97.345703 88.697266 97.345703 z M 71.345703 133.77734 C 72.522595 133.91261 74.288325 135.11042 75.816406 136.91602 C 77.812273 139.27434 78.649825 141.78055 77.685547 142.50977 C 76.721268 143.23898 74.318128 141.91692 72.322266 139.55859 C 70.326399 137.20027 69.488847 134.69406 70.453125 133.96484 C 70.57366 133.87369 70.717032 133.81418 70.878906 133.78516 C 71.020546 133.75976 71.177576 133.75802 71.345703 133.77734 z M 103.28906 135.0293 C 105.99728 135.00695 107.84554 135.38105 107.9668 136.10156 C 108.16082 137.25438 103.86362 138.85818 98.375 139.68359 C 92.886376 140.50901 88.274097 140.24461 88.080078 139.0918 C 87.886059 137.93898 92.183251 136.33323 97.671875 135.50781 C 99.730109 135.19828 101.66413 135.04271 103.28906 135.0293 z M 104.19336 141.86523 C 106.90158 141.84289 108.74983 142.21504 108.87109 142.93555 C 109.06511 144.08836 104.76792 145.69411 99.279297 146.51953 C 93.790673 147.34494 89.178394 147.08055 88.984375 145.92773 C 88.790356 144.77492 93.087548 143.16917 98.576172 142.34375 C 100.63441 142.03422 102.56843 141.87864 104.19336 141.86523 z M 110.90234 143.75 C 110.98086 143.75347 111.05818 143.76648 111.13086 143.79102 C 112.2938 144.18363 112.22398 147.18265 110.97656 150.48438 C 109.72915 153.78603 107.77427 156.14652 106.61133 155.75391 C 105.44839 155.3613 105.51625 152.36221 106.76367 149.06055 C 107.93312 145.96524 109.72463 143.69797 110.90234 143.75 z M 81.875 146.08398 C 80.882234 147.11614 78.9293 149.15456 77.816406 150.31055 C 69.039218 159.42754 61.614288 166.24389 60.509766 165.15234 C 59.393937 164.04962 66.790856 157.50805 76.236328 150.12695 C 78.01827 148.73447 79.05344 147.93431 80.726562 146.625 C 71.791228 149.04875 64.795535 150.18531 64.578125 148.91797 C 64.364258 147.6713 71.553682 146.59088 81.875 146.08398 z M 86.5 146.31641 C 87.659815 146.2578 89.175527 148.10977 89.994141 150.65234 C 90.867329 153.36442 90.616922 155.84176 89.435547 156.18164 C 88.254172 156.52152 86.588032 154.59489 85.714844 151.88281 C 84.841655 149.17073 85.090109 146.69339 86.271484 146.35352 C 86.34532 146.33227 86.422679 146.32031 86.5 146.31641 z M 99.519531 154.02734 C 102.72426 154.0296 105.18434 154.73463 105.25391 155.75391 C 105.33341 156.9188 102.25956 158.05518 98.392578 158.29102 C 94.52559 158.52685 91.323647 157.77231 91.244141 156.60742 C 91.164634 155.44253 94.238485 154.30614 98.105469 154.07031 C 98.588842 154.04083 99.061713 154.02702 99.519531 154.02734 z M 75.005859 157.77148 C 76.067188 157.76423 77.522442 158.23672 78.925781 159.12109 C 81.171129 160.53609 82.436939 162.4721 81.751953 163.44336 C 81.066967 164.41462 78.688703 164.05572 76.443359 162.64062 C 74.198012 161.22563 72.932202 159.28767 73.617188 158.31641 C 73.874047 157.95218 74.369062 157.77584 75.005859 157.77148 z M 119.72461 159.31445 C 116.89791 170.33004 114.18741 177.9176 112.9375 177.54297 C 111.66425 177.16134 114.02752 169.77845 117.90234 160.73828 C 116.2102 161.02379 114.39826 161.32825 112.60742 161.62305 C 99.652415 163.75559 88.713998 164.89013 88.53125 163.44336 C 88.35085 162.01519 99.623323 160.60416 114.04102 159.66602 C 115.98562 159.53948 117.92191 159.42311 119.72461 159.31445 z M 72.261719 159.59766 C 73.495648 159.55192 74.699738 164.39642 74.949219 170.41016 C 75.1987 176.42389 74.399945 181.34098 73.166016 181.38672 C 71.932086 181.43246 70.727997 176.58991 70.478516 170.57617 C 70.229035 164.56243 71.02779 159.6434 72.261719 159.59766 z M 84.916016 162.16211 C 86.130061 161.9486 87.925895 165.89053 88.923828 170.96094 C 89.537833 174.08064 89.702285 176.89563 89.458984 178.65625 C 90.577655 177.95676 93.629849 177.37339 97.509766 177.09375 C 97.217445 176.20627 96.983995 175.10251 96.841797 173.85547 C 93.426113 174.06353 90.94195 173.69981 90.791016 172.84375 C 90.631996 171.94183 93.122936 170.76628 96.720703 169.90039 C 96.884012 166.70786 97.675601 164.32572 98.708984 164.29883 C 99.670341 164.27383 100.5426 166.29474 100.94141 169.13477 C 102.51187 168.926 104.0095 168.79246 105.2832 168.78125 C 107.87412 168.75845 109.64655 169.13192 109.77344 169.85156 C 109.96973 170.9649 106.14305 172.49511 101.1543 173.3418 C 101.10267 174.72617 100.92671 175.95556 100.66992 176.94141 C 100.83155 176.93747 100.98329 176.92668 101.14648 176.92383 C 107.88252 176.80591 113.36776 177.6571 113.39062 178.82422 C 113.41349 179.99133 107.96455 181.03443 101.22852 181.15234 C 95.330342 181.25559 90.391148 180.61621 89.238281 179.67188 C 89.066945 180.17515 88.832106 180.48029 88.53125 180.5332 C 87.317204 180.74672 85.523324 176.80478 84.525391 171.73438 C 83.527457 166.66393 83.70197 162.37562 84.916016 162.16211 z "
         transform="matrix(2.2350391,0,0,2.3644049,154.67073,142.65608)"
         id="rect5135" />
    </g>
    <ellipse
       style="fill:#000000;fill-opacity:1;fill-rule:nonzero;stroke:none;stroke-width:14;stroke-miterlimit:4;stroke-dasharray:none;stroke-opacity:1"
       id="path6571"
       cx="136.64587"
       cy="999.50006"
       rx="88.886147"
       ry="21.465704" />
    <path
       style="fill:#000000;fill-opacity:1"
       d="M 90.095703 45.349609 A 88.281479 19.954035 0 0 0 1.8144531 65.304688 A 88.281479 19.954035 0 0 0 90.095703 85.257812 A 88.281479 19.954035 0 0 0 178.37695 65.304688 A 88.281479 19.954035 0 0 0 90.095703 45.349609 z M 90.095703 54.419922 A 65.304115 10.279351 0 0 1 155.40039 64.699219 A 65.304115 10.279351 0 0 1 90.095703 74.978516 A 65.304115 10.279351 0 0 1 24.791016 64.699219 A 65.304115 10.279351 0 0 1 90.095703 54.419922 z "
       transform="translate(46.727494,741.00471)"
       id="path3375" />
  </g>
  <g
     inkscape:groupmode="layer"
     id="layer2"
     inkscape:label="Layer 1">
    <path
       transform="matrix(0.35765929,0,0,0.35765929,-36.222206,-33.28823)"
       clip-path="url(#clipPath3426)"
       id="path5129"
       d="m 349.32369,276.64791 c -1.17799,-0.23717 -0.37,-12.47509 3.81477,-32.02936 4.13693,-19.33067 11.82741,-46.54324 25.83081,-74.13469 1e-5,1e-5 1e-5,0 1e-5,0 0.92606,-1.82818 1.8824,-3.66024 2.87018,-5.4924 11.30339,-20.9659 24.31377,-37.45391 38.69363,-49.85303 13.20413,-11.39579 25.52885,-17.325923 35.21905,-20.1423 4.58777,-1.327515 8.21137,-1.838978 10.78263,-1.923671 0,0 0,0 0,0 2.52974,0.04799 3.89056,0.283557 3.95271,0.718317 0.0621,0.434612 -1.17729,1.042179 -3.53028,1.787993 0,0 0,1e-6 0,1e-6 -2.4139,0.904404 -5.38018,1.99642 -9.51655,3.937527 -8.77312,4.094443 -19.26476,10.444133 -31.22859,21.882823 -12.96904,12.41144 -24.61728,28.13294 -35.56172,48.35191 -0.95311,1.76078 -1.88255,3.52156 -2.78911,5.27836 0,0 0,1e-5 0,1e-5 -13.60572,26.4185 -22.28837,52.8181 -28.04284,71.33572 -5.84928,18.82272 -9.06151,30.57134 -10.4947,30.28279 z"
       style="fill:#000000;fill-rule:evenodd;stroke:none;stroke-width:1px;stroke-linecap:butt;stroke-linejoin:miter;stroke-opacity:1" />
  </g>
</svg>
