<?xml version="1.0" encoding="UTF-8" standalone="no"?>
<svg
   xmlns:dc="http://purl.org/dc/elements/1.1/"
   xmlns:cc="http://creativecommons.org/ns#"
   xmlns:rdf="http://www.w3.org/1999/02/22-rdf-syntax-ns#"
   xmlns:svg="http://www.w3.org/2000/svg"
   xmlns="http://www.w3.org/2000/svg"
   xmlns:sodipodi="http://sodipodi.sourceforge.net/DTD/sodipodi-0.dtd"
   xmlns:inkscape="http://www.inkscape.org/namespaces/inkscape"
   version="1.1"
   id="svg2"
   viewBox="0 0 250 291.87675"
   height="82.374107mm"
   width="70.555557mm"
   inkscape:version="0.91 r13725"
   sodipodi:docname="lantern.svg">
  <sodipodi:namedview
     pagecolor="#ffffff"
     bordercolor="#666666"
     borderopacity="1"
     objecttolerance="10"
     gridtolerance="10"
     guidetolerance="10"
     inkscape:pageopacity="0"
     inkscape:pageshadow="2"
     inkscape:window-width="943"
     inkscape:window-height="618"
     id="namedview8065"
     showgrid="false"
     inkscape:zoom="1.6171209"
     inkscape:cx="143.73353"
     inkscape:cy="230.39004"
     inkscape:window-x="0"
     inkscape:window-y="0"
     inkscape:window-maximized="0"
     inkscape:current-layer="layer1" />
  <defs
     id="defs4" />
  <metadata
     id="metadata7">
    <rdf:RDF>
      <cc:Work
         rdf:about="">
        <dc:format>image/svg+xml</dc:format>
        <dc:type
           rdf:resource="http://purl.org/dc/dcmitype/StillImage" />
        <dc:title />
      </cc:Work>
    </rdf:RDF>
  </metadata>
  <g
     transform="translate(-26.330513,-744.81886)"
     id="layer1">
    <path
       style="fill:#000000;fill-opacity:1"
       d="M 124.98828 0 A 21.403244 19.941637 0 0 0 103.58594 19.941406 A 21.403244 19.941637 0 0 0 124.98828 39.882812 A 21.403244 19.941637 0 0 0 146.39258 19.941406 A 21.403244 19.941637 0 0 0 124.98828 0 z M 125 5.9160156 A 13.976376 10.634201 0 0 1 138.97656 16.550781 A 13.976376 10.634201 0 0 1 125 27.185547 A 13.976376 10.634201 0 0 1 111.02344 16.550781 A 13.976376 10.634201 0 0 1 125 5.9160156 z "
       transform="translate(26.330513,744.81884)"
       id="path3342" />
    <g
       id="g8086">
      <path
         style="fill:#000000;fill-opacity:1"
         d="M 93.650391 21.035156 C 88.889463 21.035156 85.056641 24.867979 85.056641 29.628906 L 85.056641 42.703125 A 125 92.957626 0 0 0 0 130.66602 A 125 92.957626 0 0 0 85.056641 218.65625 L 85.056641 232.07227 C 85.056641 236.83319 88.889463 240.66602 93.650391 240.66602 L 156.34961 240.66602 C 161.11054 240.66602 164.94336 236.83319 164.94336 232.07227 L 164.94336 218.62695 A 125 92.957626 0 0 0 250 130.66602 A 125 92.957626 0 0 0 164.94336 42.673828 L 164.94336 29.628906 C 164.94336 24.867979 161.11054 21.035156 156.34961 21.035156 L 93.650391 21.035156 z M 89.390625 44.296875 C 89.47823 44.304574 89.544241 44.331249 89.585938 44.376953 C 90.422697 45.294163 85.212643 51.012681 76.783203 60.863281 C 68.89145 70.085541 56.23981 85.135032 48.216797 102.92383 C 45.143159 109.71268 42.63198 117.20275 41.707031 124.98438 C 41.493149 126.74397 41.359022 128.52765 41.308594 130.32422 C 41.174531 135.10048 41.636238 139.79505 42.632812 144.26367 C 44.034354 150.62608 46.54648 156.64954 49.474609 162.10547 C 52.872146 168.4291 57.005376 174.23408 60.96875 179.3125 C 68.169733 188.5393 78.583088 199.7331 82.679688 204.37695 C 88.034998 210.44764 90.849821 214.15928 90.238281 214.80664 C 89.659131 215.41972 85.729843 212.90798 79.376953 207.85352 C 73.545895 203.21425 63.6382 194.79113 54.583984 184.6543 C 50.064034 179.59322 45.345495 173.60171 41.298828 166.71289 C 37.799055 160.75976 34.785105 153.96163 32.994141 146.48633 C 31.742696 141.21082 31.1552 135.67586 31.3125 130.04297 C 31.37165 127.92475 31.535333 125.82571 31.798828 123.75195 C 32.979671 114.62455 35.935455 106.20142 39.580078 98.826172 C 49.149018 79.537292 63.118576 65.112396 72.46875 56.660156 C 81.673729 48.339169 88.076546 44.181396 89.390625 44.296875 z M 103.18555 45.371094 C 103.25845 45.368633 103.32006 45.382414 103.36914 45.414062 C 105.89262 47.041232 93.121936 64.515326 86.009766 93.884766 C 83.410666 104.56988 81.807817 116.54867 82.060547 129.36719 C 82.101447 131.44236 82.189419 133.49721 82.324219 135.53125 C 83.261609 149.93743 86.488538 163.43051 89.898438 174.69531 C 97.067058 198.35777 104.69689 213.27807 102.60547 214.3457 C 101.53651 214.89138 91.091811 201.46465 81.894531 177.44336 C 77.490461 165.9466 73.543942 151.82663 72.375 136.23047 C 72.212599 134.03072 72.10838 131.80631 72.064453 129.5625 C 71.792936 115.6933 73.862122 102.79692 77.232422 91.5 C 81.765402 76.36249 88.415153 64.291474 93.501953 56.615234 C 98.368609 49.271187 102.09199 45.408007 103.18555 45.371094 z M 125.72852 45.740234 C 128.60546 45.799634 129.7457 83.82354 129.29688 130.55859 C 129.27378 132.96048 129.2465 135.3403 129.2168 137.69141 C 128.96146 157.98731 128.35821 180.16424 127.81445 192.70117 C 127.20964 206.64539 126.44286 215.22312 125.12109 215.2793 C 123.82733 215.3343 122.2115 206.84293 121.03125 192.83984 C 119.80936 178.34258 119.18893 159.87052 119.25195 137.61523 C 119.25895 135.25643 119.27367 132.87193 119.29688 130.46289 C 119.74715 83.600045 123.08678 45.685734 125.72852 45.740234 z M 159.64648 45.935547 C 160.8126 45.738378 166.3334 49.055253 174.36914 55.912109 C 182.60375 62.938659 194.70232 74.829035 204.25586 90.921875 C 210.64851 101.67211 215.87249 115.03927 216.83398 129.7832 C 216.99199 132.20615 217.03052 134.62282 216.94922 137.0293 C 216.24034 153.87489 209.71749 168.66606 202.27734 179.79883 C 193.57962 192.83249 183.33749 202.34835 176.45312 207.9082 C 169.28014 213.70114 164.59972 216.21798 164.04688 215.5625 C 163.40187 214.79774 166.94382 210.92731 172.92578 204.20117 C 178.54285 197.88532 187.67179 187.54496 194.90234 175.17578 C 201.08319 164.577 206.58618 151.10539 206.97656 136.67969 C 207.05246 134.61124 207.02322 132.52451 206.89062 130.42188 C 206.08696 117.67495 201.58696 105.5557 196.21289 95.460938 C 188.14363 80.343197 177.27613 67.736138 170.41992 59.923828 C 163.15758 51.648728 158.73239 46.875024 159.47266 46.021484 C 159.51114 45.977109 159.56874 45.948691 159.64648 45.935547 z M 142.97656 47.003906 C 144.08488 46.968504 148.17754 50.64605 153.72461 57.769531 C 159.49742 65.182911 167.3187 77.04261 173.07617 92.125 C 177.23487 103.04241 180.21143 115.75341 180.57422 129.50586 C 180.63732 131.89862 180.61994 134.27281 180.52344 136.625 C 179.85035 152.28079 175.77346 166.35483 170.86328 177.73047 C 160.31969 202.15312 147.51498 214.20759 146.66992 213.63477 C 144.58843 212.22384 154.6545 198.32272 162.95508 174.63281 C 166.8049 163.64413 170.09731 150.45581 170.55859 136.24609 C 170.63259 134.10808 170.64254 131.94849 170.58594 129.76758 C 170.26099 117.25385 167.80553 105.49097 164.46094 95.166016 C 159.87262 80.970296 153.3913 68.724776 149.10938 60.791016 C 144.65967 52.546406 141.92784 47.715997 142.79492 47.060547 C 142.84183 47.025089 142.90267 47.006266 142.97656 47.003906 z "
         transform="translate(26.330513,744.81884)"
         id="path3344" />
    </g>
    <rect
       y="983.3017"
       x="126.5873"
       height="52.964226"
       width="7.8996916"
       id="rect3355"
       style="fill:#000000;fill-opacity:1" />
    <rect
       style="fill:#000000;fill-opacity:1;fill-rule:nonzero;stroke:none;stroke-width:7;stroke-miterlimit:4;stroke-dasharray:none;stroke-opacity:1"
       id="rect8067"
       width="7.4334641"
       height="52.471478"
       x="118.59296"
       y="983.7868"
       ry="0" />
    <rect
       style="fill:#000000;fill-opacity:1;fill-rule:nonzero;stroke:none;stroke-width:7;stroke-miterlimit:4;stroke-dasharray:none;stroke-opacity:1"
       id="rect8069"
       width="8.3079929"
       height="51.159744"
       x="142.20515"
       y="984.66132" />
    <rect
       style="fill:#000000;fill-opacity:1;fill-rule:nonzero;stroke:none;stroke-width:7;stroke-miterlimit:4;stroke-dasharray:none;stroke-opacity:1"
       id="rect8071"
       width="8.3079987"
       height="52.034248"
       x="150.95041"
       y="983.7868"
       ry="0" />
    <rect
       style="fill:#000000;fill-opacity:1;fill-rule:nonzero;stroke:none;stroke-width:7;stroke-miterlimit:4;stroke-dasharray:none;stroke-opacity:1"
       id="rect8073"
       width="8.3079929"
       height="51.159744"
       x="167.12912"
       y="985.09857" />
    <rect
       style="fill:#000000;fill-opacity:1;fill-rule:nonzero;stroke:none;stroke-width:7;stroke-miterlimit:4;stroke-dasharray:none;stroke-opacity:1"
       id="rect8075"
       width="7.8707299"
       height="52.908798"
       x="176.31165"
       y="983.34955" />
  </g>
</svg>
