<?xml version="1.0" encoding="UTF-8" standalone="no"?>
<svg
   xmlns:dc="http://purl.org/dc/elements/1.1/"
   xmlns:cc="http://creativecommons.org/ns#"
   xmlns:rdf="http://www.w3.org/1999/02/22-rdf-syntax-ns#"
   xmlns:svg="http://www.w3.org/2000/svg"
   xmlns="http://www.w3.org/2000/svg"
   xmlns:sodipodi="http://sodipodi.sourceforge.net/DTD/sodipodi-0.dtd"
   xmlns:inkscape="http://www.inkscape.org/namespaces/inkscape"
   version="1.1"
   id="svg3603"
   viewBox="0 0 250.00001 320.12197"
   height="90.345535mm"
   width="70.555557mm"
   inkscape:version="0.91 r13725"
   sodipodi:docname="redpocket.svg">
  <sodipodi:namedview
     pagecolor="#ffffff"
     bordercolor="#666666"
     borderopacity="1"
     objecttolerance="10"
     gridtolerance="10"
     guidetolerance="10"
     inkscape:pageopacity="0"
     inkscape:pageshadow="2"
     inkscape:window-width="926"
     inkscape:window-height="623"
     id="namedview8209"
     showgrid="false"
     inkscape:zoom="1.474438"
     inkscape:cx="125"
     inkscape:cy="187.18997"
     inkscape:window-x="0"
     inkscape:window-y="0"
     inkscape:window-maximized="0"
     inkscape:current-layer="layer1" />
  <defs
     id="defs3605" />
  <metadata
     id="metadata3608">
    <rdf:RDF>
      <cc:Work
         rdf:about="">
        <dc:format>image/svg+xml</dc:format>
        <dc:type
           rdf:resource="http://purl.org/dc/dcmitype/StillImage" />
        <dc:title />
      </cc:Work>
    </rdf:RDF>
  </metadata>
  <g
     transform="translate(-30,-696.52597)"
     id="layer1">
    <path
       style="fill:#000000;fill-opacity:1"
       d="M 10.669922 0 C 4.7583361 0 0 4.7583368 0 10.669922 L 0 309.45117 C 0 315.36276 4.7583361 320.12109 10.669922 320.12109 L 239.33008 320.12109 C 245.24166 320.12109 250 315.36276 250 309.45117 L 250 10.669922 C 250 4.7583368 245.24166 -4.7369516e-15 239.33008 0 L 10.669922 0 z M 2.3808594 90.335938 C 8.3882538 90.860782 44.439587 106.79977 91.015625 129.07031 A 36.585371 36.585369 0 0 1 125 105.94531 A 36.585371 36.585369 0 0 1 159.04102 129.14258 C 203.86098 108.29078 238.41346 93.393278 246.25 91.886719 C 246.80391 91.537579 247.22481 91.387743 247.39062 91.533203 C 247.55677 91.678953 247.46156 92.115217 247.01758 92.904297 C 241.59805 97.631012 207.68067 114.98522 161.15625 137.1582 A 36.585371 36.585369 0 0 1 161.58594 142.53125 A 36.585371 36.585369 0 0 1 125 179.11523 A 36.585371 36.585369 0 0 1 88.414062 142.53125 A 36.585371 36.585369 0 0 1 88.851562 137.19727 C 37.346435 112.16416 0.45819815 92.713374 1.515625 90.519531 C 1.5963394 90.352073 1.8884516 90.292918 2.3808594 90.335938 z "
       transform="translate(30,696.52595)"
       id="rect4411" />
    <path
       id="path4441"
       d="m 140.51831,820.76373 c 1.71022,-2.16628 6.34212,-1.36344 10.33908,1.79205 3.99695,3.15549 5.85285,7.4746 4.14263,9.64088 -1.71022,2.16628 -6.34212,1.36344 -10.33908,-1.79205 -3.99695,-3.15549 -5.85285,-7.4746 -4.14263,-9.64088 z"
       style="fill:#000000;fill-rule:evenodd;stroke:none;stroke-width:1px;stroke-linecap:butt;stroke-linejoin:miter;stroke-opacity:1" />
    <path
       id="path4449"
       d="m 169.48173,818.47714 c 1.89818,2.00363 0.19482,6.70294 -3.80213,10.48952 -3.99695,3.78659 -8.7814,5.23363 -10.67958,3.23 -1.89818,-2.00363 -0.19482,-6.70294 3.80213,-10.48952 3.99695,-3.78659 8.7814,-5.23363 10.67958,-3.23 z"
       style="fill:#000000;fill-rule:evenodd;stroke:none;stroke-width:1px;stroke-linecap:butt;stroke-linejoin:miter;stroke-opacity:1" />
    <path
       id="path4453"
       d="m 141.2805,834.48324 c 0,-2.76 6.31708,-5 14.10061,-5 7.78354,0 14.10062,2.24 14.10062,5 0,2.76 -6.31708,5 -14.10062,5 -7.78353,0 -14.10061,-2.24 -14.10061,-5 z"
       style="fill:#000000;fill-rule:evenodd;stroke:none;stroke-width:1px;stroke-linecap:butt;stroke-linejoin:miter;stroke-opacity:1" />
    <path
       id="path4457"
       d="m 139.75611,845.91617 c 0,-2.76 6.82927,-5 15.24391,-5 8.41463,0 15.2439,2.24 15.2439,5 0,2.76 -6.82927,5 -15.2439,5 -8.41464,0 -15.24391,-2.24 -15.24391,-5 z"
       style="fill:#000000;fill-rule:evenodd;stroke:none;stroke-width:1px;stroke-linecap:butt;stroke-linejoin:miter;stroke-opacity:1" />
    <path
       id="path4461"
       d="m 154.61892,834.48324 c 2.75904,-0.0726 5.169,6.35627 5.37937,14.35018 0.21037,7.99391 -1.85813,14.54064 -4.61717,14.61325 -2.75904,0.0726 -5.169,-6.35627 -5.37937,-14.35018 -0.21037,-7.99391 1.85813,-14.54064 4.61717,-14.61325 z"
       style="fill:#000000;fill-rule:evenodd;stroke:none;stroke-width:1px;stroke-linecap:butt;stroke-linejoin:miter;stroke-opacity:1" />
  </g>
</svg>
