<?xml version="1.0" encoding="UTF-8" standalone="no"?>
<!-- Created with Inkscape (http://www.inkscape.org/) -->

<svg
   xmlns:dc="http://purl.org/dc/elements/1.1/"
   xmlns:cc="http://creativecommons.org/ns#"
   xmlns:rdf="http://www.w3.org/1999/02/22-rdf-syntax-ns#"
   xmlns:svg="http://www.w3.org/2000/svg"
   xmlns="http://www.w3.org/2000/svg"
   xmlns:sodipodi="http://sodipodi.sourceforge.net/DTD/sodipodi-0.dtd"
   xmlns:inkscape="http://www.inkscape.org/namespaces/inkscape"
   width="400mm"
   height="400mm"
   viewBox="0 0 1417.3228 1417.3228"
   id="svg4146"
   version="1.1"
   inkscape:version="0.91 r13725"
   sodipodi:docname="cloudy.svg">
  <defs
     id="defs4148" />
  <sodipodi:namedview
     id="base"
     pagecolor="#ffffff"
     bordercolor="#666666"
     borderopacity="1.0"
     inkscape:pageopacity="0.0"
     inkscape:pageshadow="2"
     inkscape:zoom="0.49497475"
     inkscape:cx="475.98253"
     inkscape:cy="965.29375"
     inkscape:document-units="px"
     inkscape:current-layer="layer1"
     showgrid="false"
     inkscape:window-width="1440"
     inkscape:window-height="851"
     inkscape:window-x="0"
     inkscape:window-y="1"
     inkscape:window-maximized="1" />
  <metadata
     id="metadata4151">
    <rdf:RDF>
      <cc:Work
         rdf:about="">
        <dc:format>image/svg+xml</dc:format>
        <dc:type
           rdf:resource="http://purl.org/dc/dcmitype/StillImage" />
        <dc:title></dc:title>
      </cc:Work>
    </rdf:RDF>
  </metadata>
  <g
     inkscape:label="Layer 1"
     inkscape:groupmode="layer"
     id="layer1"
     transform="translate(0,364.96063)">
    <circle
       style="fill:#ffdd55;fill-rule:evenodd;stroke:none;stroke-width:1px;stroke-linecap:butt;stroke-linejoin:miter;stroke-opacity:1"
       id="path4741"
       cx="938.20477"
       cy="179.18858"
       r="229.30463"
       transform="matrix(0.99591374,-0.09030955,0.09030955,0.99591374,0,0)" />
    <path
       style="fill:#f9f9f9;stroke:none;stroke-width:2.99999952;stroke-linecap:butt;stroke-linejoin:miter;stroke-miterlimit:4;stroke-dasharray:none;stroke-opacity:1"
       d="m 438.19582,364.04318 -188.53896,3.64606 c -30.76531,-1.37578 -51.07698,-18.02056 -81.84229,-50.50375 -14.77302,-16.26444 -29.84221,-55.60971 -32.22553,-71.79136 -7.72118,-52.42337 11.7184,-89.75211 20.43147,-106.52412 C 229.93312,-3.4061517 356.11906,14.927694 439.31312,20.961275 l 67.64752,4.90608 6.09239,-29.2702297 C 530.54047,-87.419417 604.95492,-142.06191 688.41135,-166.12393 c 30.71989,-8.8571 56.87716,-12.36842 91.99216,-12.34891 133.74779,0.0743 241.56049,72.82121 258.07509,174.1368743 l 1.2111,7.429833 21.4123,2.639863 c 87.5087,10.7887437 150.4117,41.2631907 184.8823,89.5694817 46.7463,65.509028 32.275,166.803338 -32.9421,230.584058 -18.2268,17.82533 -34.2535,28.17743 -54.0954,34.9418 l -13.7107,4.67415 -185.02971,-0.46235 c -101.76634,-0.25427 -336.6711,-0.70323 -522.01057,-0.99769 z"
       id="path4702"
       inkscape:connector-curvature="0"
       sodipodi:nodetypes="sccssscsssscsssscss" />
  </g>
</svg>
