<?xml version="1.0" encoding="UTF-8" standalone="no"?>
<!-- Created with Inkscape (http://www.inkscape.org/) -->

<svg
   xmlns:dc="http://purl.org/dc/elements/1.1/"
   xmlns:cc="http://creativecommons.org/ns#"
   xmlns:rdf="http://www.w3.org/1999/02/22-rdf-syntax-ns#"
   xmlns:svg="http://www.w3.org/2000/svg"
   xmlns="http://www.w3.org/2000/svg"
   xmlns:sodipodi="http://sodipodi.sourceforge.net/DTD/sodipodi-0.dtd"
   xmlns:inkscape="http://www.inkscape.org/namespaces/inkscape"
   width="400mm"
   height="400mm"
   viewBox="0 0 1417.3228 1417.3228"
   id="svg2"
   version="1.1"
   inkscape:version="0.91 r13725"
   sodipodi:docname="raindrop.svg">
  <defs
     id="defs4" />
  <sodipodi:namedview
     id="base"
     pagecolor="#ffffff"
     bordercolor="#666666"
     borderopacity="1.0"
     inkscape:pageopacity="0.0"
     inkscape:pageshadow="2"
     inkscape:zoom="0.49497475"
     inkscape:cx="585.07283"
     inkscape:cy="857.27762"
     inkscape:document-units="px"
     inkscape:current-layer="layer1"
     showgrid="false"
     inkscape:window-width="1440"
     inkscape:window-height="851"
     inkscape:window-x="0"
     inkscape:window-y="1"
     inkscape:window-maximized="1" />
  <metadata
     id="metadata7">
    <rdf:RDF>
      <cc:Work
         rdf:about="">
        <dc:format>image/svg+xml</dc:format>
        <dc:type
           rdf:resource="http://purl.org/dc/dcmitype/StillImage" />
        <dc:title />
      </cc:Work>
    </rdf:RDF>
  </metadata>
  <g
     inkscape:label="Layer 1"
     inkscape:groupmode="layer"
     id="layer1"
     transform="translate(0,364.96063)">
    <path
       style="fill:none;fill-rule:evenodd;stroke:none;stroke-width:9.99999905;stroke-linecap:butt;stroke-linejoin:miter;stroke-miterlimit:4;stroke-dasharray:none;stroke-opacity:1"
       d="M 305.06611,50.29092 C 294.95307,-273.31941 1036.629,-393.33411 1105.1068,58.37216"
       id="path4175"
       inkscape:connector-curvature="0"
       sodipodi:nodetypes="cc" />
    <path
       style="fill:none;fill-rule:evenodd;stroke:none;stroke-width:9.99999905;stroke-linecap:butt;stroke-linejoin:miter;stroke-miterlimit:4;stroke-dasharray:none;stroke-opacity:1"
       d="M 311.12698,50.29094 C 24.557793,56.11291 72.751081,389.72591 307.08637,391.72249"
       id="path4183"
       inkscape:connector-curvature="0"
       sodipodi:nodetypes="cc" />
    <path
       style="fill:none;fill-rule:evenodd;stroke:none;stroke-width:9.99999905;stroke-linecap:butt;stroke-linejoin:miter;stroke-miterlimit:4;stroke-dasharray:none;stroke-opacity:1"
       d="m 1105.1069,54.33156 c 254.1967,-32.30245 299.3089,344.27046 4.0406,333.35033"
       id="path4185"
       inkscape:connector-curvature="0"
       sodipodi:nodetypes="cc" />
    <path
       style="fill:none;fill-rule:evenodd;stroke:none;stroke-width:9.99999905;stroke-linecap:butt;stroke-linejoin:miter;stroke-miterlimit:4;stroke-dasharray:none;stroke-opacity:1"
       d="m 303.04576,391.7225 812.16264,-4.04061"
       id="path4187"
       inkscape:connector-curvature="0" />
    <path
       style="fill:#ffffff;stroke:none;stroke-width:1px;stroke-linecap:butt;stroke-linejoin:miter;stroke-opacity:1"
       d="m 286.83021,749.54541 c -20.87613,-2.00752 -48.96502,-9.65866 -66.92296,-18.2292 -48.49869,-23.14629 -86.16988,-70.43613 -97.06148,-121.84437 -4.83215,-22.80767 -2.84167,-58.33898 4.48259,-80.01691 18.42633,-54.53729 68.11847,-91.70575 139.05837,-104.01214 9.86827,-1.7119 23.05076,-3.12648 29.29442,-3.14349 14.47834,-0.0394 17.34749,-1.81199 15.76234,-9.73777 -2.81888,-14.09436 3.58227,-49.66128 13.88424,-77.14551 26.9612,-71.92871 109.53905,-138.83947 214.04062,-173.43175 56.94309,-18.84939 100.62335,-26.35055 162.63456,-27.92904 65.35252,-1.66355 113.20769,4.84395 167.68532,22.80239 121.85775,40.17016 199.96157,125.25162 225.15477,245.26956 l 4.4529,21.2132 28.4845,0.27099 c 42.1413,0.40089 66.5318,5.70063 93.4409,20.3036 58.6251,31.81453 93.6693,99.90144 84.9897,165.12517 -10.3213,77.55939 -68.8914,127.89226 -158.7308,136.40686 -11.3519,1.07589 -185.72049,2.41733 -398.00012,3.06187 -207.78838,0.6309 -392.79782,1.51563 -411.13209,1.96608 -18.33426,0.45043 -41.51726,0.0321 -51.51778,-0.92954 z"
       id="path4232"
       inkscape:connector-curvature="0"
       transform="translate(0,-364.96063)" />
    <rect
       style="fill:#ffffff;stroke:none;stroke-width:8.94658661;stroke-miterlimit:4;stroke-dasharray:none;stroke-opacity:1"
       id="rect4209"
       width="41.053406"
       height="126.0534"
       x="393.43274"
       y="243.97244"
       ry="22.918802" />
    <rect
       style="fill:#ffffff;stroke:none;stroke-width:9.94348621;stroke-miterlimit:4;stroke-dasharray:none;stroke-opacity:1"
       id="rect4231"
       width="50.056507"
       height="137.0565"
       x="507.06827"
       y="238.53178"
       ry="24.186478" />
    <rect
       style="fill:#ffffff;stroke:none;stroke-width:8.87102604;stroke-miterlimit:4;stroke-dasharray:none;stroke-opacity:1"
       id="rect4233"
       width="45.068054"
       height="126.00712"
       x="666.13623"
       y="235.97531"
       ry="22.803974" />
    <rect
       style="fill:#ffffff;stroke:none;stroke-width:9.61142826;stroke-miterlimit:4;stroke-dasharray:none;stroke-opacity:1"
       id="rect4235"
       width="50.388565"
       height="137.38857"
       x="805.90747"
       y="234.32516"
       ry="24.835909" />
    <rect
       style="fill:#ffffff;stroke:none;stroke-width:9.36220551;stroke-miterlimit:4;stroke-dasharray:none;stroke-opacity:1"
       id="rect4237"
       width="46.597179"
       height="137.73778"
       x="957.30579"
       y="230.05994"
       ry="24.538183" />
  </g>
</svg>
