<?xml version="1.0" encoding="UTF-8" standalone="no"?>
<!-- Created with Inkscape (http://www.inkscape.org/) -->

<svg
   xmlns:dc="http://purl.org/dc/elements/1.1/"
   xmlns:cc="http://creativecommons.org/ns#"
   xmlns:rdf="http://www.w3.org/1999/02/22-rdf-syntax-ns#"
   xmlns:svg="http://www.w3.org/2000/svg"
   xmlns="http://www.w3.org/2000/svg"
   xmlns:sodipodi="http://sodipodi.sourceforge.net/DTD/sodipodi-0.dtd"
   xmlns:inkscape="http://www.inkscape.org/namespaces/inkscape"
   width="400mm"
   height="400mm"
   viewBox="0 0 1417.3228 1417.3228"
   id="svg5336"
   version="1.1"
   inkscape:version="0.91 r13725"
   sodipodi:docname="sunrise.svg">
  <defs
     id="defs5338">
    <inkscape:perspective
       sodipodi:type="inkscape:persp3d"
       inkscape:vp_x="0 : 708.6614 : 1"
       inkscape:vp_y="0 : 1000 : 0"
       inkscape:vp_z="1417.3228 : 708.6614 : 1"
       inkscape:persp3d-origin="708.6614 : 472.44093 : 1"
       id="perspective5909" />
  </defs>
  <sodipodi:namedview
     id="base"
     pagecolor="#ffffff"
     bordercolor="#666666"
     borderopacity="1.0"
     inkscape:pageopacity="0.0"
     inkscape:pageshadow="2"
     inkscape:zoom="0.49497475"
     inkscape:cx="419.19439"
     inkscape:cy="796.74696"
     inkscape:document-units="px"
     inkscape:current-layer="layer1"
     showgrid="false"
     inkscape:window-width="1440"
     inkscape:window-height="851"
     inkscape:window-x="0"
     inkscape:window-y="1"
     inkscape:window-maximized="1" />
  <metadata
     id="metadata5341">
    <rdf:RDF>
      <cc:Work
         rdf:about="">
        <dc:format>image/svg+xml</dc:format>
        <dc:type
           rdf:resource="http://purl.org/dc/dcmitype/StillImage" />
        <dc:title></dc:title>
      </cc:Work>
    </rdf:RDF>
  </metadata>
  <g
     inkscape:label="Layer 1"
     inkscape:groupmode="layer"
     id="layer1"
     transform="translate(0,364.96063)">
    <path
       style="fill:none;fill-rule:evenodd;stroke:#4d94ff;stroke-width:22.99999809;stroke-linecap:round;stroke-linejoin:miter;stroke-miterlimit:4;stroke-dasharray:none;stroke-opacity:0.39215686"
       d="m 165.91734,33.595002 c 54.33104,81.859158 112.28485,38.02262 177.14285,14.28572 64.858,-23.7369 110.02912,-11.46139 134.28572,-10e-6 24.2566,11.46138 68.14451,52.08892 131.42857,8.57143 63.28406,-43.51749 100.18712,-25.8145 148.57143,-5.71428 48.38431,20.10022 84.27424,31.89811 154.28572,-8.57143 70.01148,-40.4695399 95.97407,-21.63812 131.42847,-2.85715 35.4545,18.78097 154.2169,46.19807 171.4286,-2.85714"
       id="path5884"
       inkscape:connector-curvature="0"
       sodipodi:nodetypes="czzzzzzc" />
    <path
       sodipodi:nodetypes="czzzzzzc"
       inkscape:connector-curvature="0"
       id="path5886"
       d="m 164.73387,75.615302 c 68.47317,71.757638 121.88115,44.775658 181.18346,12.26542 59.30231,-32.51024 104.81205,-10.34195 134.28572,-1e-5 29.47367,10.34194 68.45325,56.415838 131.42857,8.57143 62.97532,-47.84441 88.8382,-27.58777 148.57143,-5.71428 59.73323,21.873488 57.41732,25.915288 158.32633,-14.63234 100.90902,-40.54763 130.62702,7.17658 169.81422,21.386498 39.1871,14.20992 111.7905,28.01533 129.0022,-21.039878"
       style="fill:none;fill-rule:evenodd;stroke:#4d94ff;stroke-width:19.99999809;stroke-linecap:round;stroke-linejoin:miter;stroke-miterlimit:4;stroke-dasharray:none;stroke-opacity:0.39215686" />
    <path
       style="fill:none;fill-rule:evenodd;stroke:#4d94ff;stroke-width:23.99999809;stroke-linecap:round;stroke-linejoin:miter;stroke-miterlimit:4;stroke-dasharray:none;stroke-opacity:0.39215686"
       d="m 163.06019,113.595 c 77.16171,70.39087 112.70586,52.63853 177.14286,20.00001 64.437,-32.63852 72.04429,-29.14726 140,-2.85716 31.45478,12.16894 78.75416,42.49992 131.42857,8.57143 52.67441,-33.92849 95.77619,-37.18233 148.57143,-5.71428 52.79524,31.46805 85.33452,10.91631 145.71429,-5.71428 60.37977,-16.6306 74.30712,-28.148738 139.99986,4.38722 65.6928,32.53596 154.2169,36.09655 171.4286,-12.95866"
       id="path5888"
       inkscape:connector-curvature="0"
       sodipodi:nodetypes="czszzzzc" />
    <circle
       style="fill:#ffb833;fill-opacity:1;fill-rule:evenodd;stroke:none;stroke-width:1px;stroke-linecap:butt;stroke-linejoin:miter;stroke-opacity:1"
       id="path5911"
       cx="686.90369"
       cy="238.17926"
       r="171.72594" />
  </g>
</svg>
